<?xml version="1.0" encoding="UTF-8"?>
<!DOCTYPE svg PUBLIC "-//W3C//DTD SVG 1.1//EN" "http://www.w3.org/Graphics/SVG/1.1/DTD/svg11.dtd">
<!-- Creator: CorelDRAW 2018 (64-Bit) -->
<svg xmlns="http://www.w3.org/2000/svg" xml:space="preserve" width="100%" height="100%" version="1.1" shape-rendering="geometricPrecision" text-rendering="geometricPrecision" image-rendering="optimizeQuality" fill-rule="evenodd" clip-rule="evenodd"
viewBox="0 0 38120 6042"
 xmlns:xlink="http://www.w3.org/1999/xlink">
 <g id="Слой_x0020_1">
  <metadata id="CorelCorpID_0Corel-Layer"/>
  <rect fill="#FFED00" stroke="#2B2A29" stroke-width="20" stroke-miterlimit="22.9256" x="10" y="10" width="38100" height="6022" rx="1712" ry="1742"/>
  <polygon fill="#E31E24" fill-rule="nonzero" points="6422,4491 6422,1551 6812,1551 6812,2762 8331,2762 8331,1551 8721,1551 8721,4491 8331,4491 8331,3107 6812,3107 6812,4491 "/>
  <polygon id="1" fill="#E31E24" fill-rule="nonzero" points="9379,4491 9379,1551 11502,1551 11502,1896 9769,1896 9769,2799 11391,2799 11391,3144 9769,3144 9769,4146 11571,4146 11571,4491 "/>
  <polygon id="2" fill="#E31E24" fill-rule="nonzero" points="12856,4491 12856,1896 11887,1896 11887,1551 14215,1551 14215,1896 13246,1896 13246,4491 "/>
  <path id="3" fill="#E31E24" fill-rule="nonzero" d="M15774 1551l1909 0 0 345 -1519 0 0 907 702 0c259,0 465,25 619,75 153,49 276,142 368,280 92,137 138,296 138,478 0,148 -33,287 -99,416 -66,129 -165,235 -296,316 -131,81 -354,122 -670,122l-1152 0 0 -2940zm390 2607l778 0c210,0 367,-42 473,-128 105,-86 157,-214 157,-384 0,-122 -30,-223 -90,-305 -60,-81 -144,-135 -250,-162 -107,-27 -290,-40 -548,-40l-519 0 0 1018z"/>
  <path id="4" fill="#E31E24" fill-rule="nonzero" d="M18040 4491l1128 -2940 428 0 1197 2940 -443 0 -340 -891 -1238 0 -319 891 -413 0zm846 -1207l1002 0 -307 -815c-92,-248 -162,-452 -211,-614 -40,192 -94,380 -162,566l-322 863z"/>
  <polygon id="5" fill="#E31E24" fill-rule="nonzero" points="21117,4491 21117,1551 21507,1551 21507,2762 23026,2762 23026,1551 23416,1551 23416,4491 23026,4491 23026,3107 21507,3107 21507,4491 "/>
  <polygon id="6" fill="#E31E24" fill-rule="nonzero" points="24074,4491 24074,1551 26196,1551 26196,1896 24464,1896 24464,2799 26085,2799 26085,3144 24464,3144 24464,4146 26266,4146 26266,4491 "/>
  <path id="7" fill="#E31E24" fill-rule="nonzero" d="M26804 4491l0 -2940 1110 0c195,0 344,10 448,28 144,24 266,70 363,137 98,68 177,162 236,283 60,121 89,255 89,400 0,249 -79,461 -239,633 -159,173 -447,259 -863,259l-754 0 0 1199 -390 0zm390 -1544l760 0c252,0 430,-47 536,-140 105,-94 158,-225 158,-396 0,-122 -31,-228 -93,-315 -62,-88 -144,-146 -246,-174 -66,-17 -187,-26 -363,-26l-752 0 0 1051z"/>
  <path id="8" fill="#E31E24" fill-rule="nonzero" d="M28946 4491l1128 -2940 428 0 1197 2940 -443 0 -340 -891 -1238 0 -319 891 -413 0zm846 -1207l1002 0 -307 -815c-92,-248 -162,-452 -211,-614 -40,192 -94,380 -162,566l-322 863z"/>
 </g>
</svg>
