<svg xmlns="http://www.w3.org/2000/svg" shape-rendering="geometricPrecision" text-rendering="geometricPrecision" image-rendering="optimizeQuality" fill-rule="evenodd" clip-rule="evenodd" viewBox="0 0 109.56 171.03"><path fill="#E31E24" d="M109.56 154.262c0 5.217-1.284 9.315-3.853 12.296s-5.798 4.472-9.686 4.472c-7.22 0-12.08-5.962-14.58-17.886l-3.541-15.929h-46.032l-3.749 16.209c-2.777 11.737-7.776 17.606-14.997 17.606-8.748 0-13.122-5.31-13.122-15.976 0-5.077 1.041-11.412 3.124-19.05l29.577-107.685c5.277-18.864 12.498-28.319 21.663-28.319 9.581 0 16.801 8.57 21.662 25.71l31.035 111.505c1.666 5.775 2.499 11.458 2.499 17.047zm-40.2-51.7l-14.163-60.922h-.417l-14.789 60.922h29.369z"/></svg>