<?xml version="1.0" encoding="UTF-8"?>
<!DOCTYPE svg PUBLIC "-//W3C//DTD SVG 1.1//EN" "http://www.w3.org/Graphics/SVG/1.1/DTD/svg11.dtd">
<!-- Creator: CorelDRAW 2017 -->
<svg xmlns="http://www.w3.org/2000/svg" xml:space="preserve" width="100%" height="100%" version="1.1" shape-rendering="geometricPrecision" text-rendering="geometricPrecision" image-rendering="optimizeQuality" fill-rule="evenodd" clip-rule="evenodd"
viewBox="0 0 1132.355 993.862"
 xmlns:xlink="http://www.w3.org/1999/xlink">
 <g id="Слой_x0020_1">
  <metadata id="CorelCorpID_0Corel-Layer"/>
  <g id="flag.pdf">
   <path fill="#007239" fill-rule="nonzero" d="M681.891 0.718c26.989,-0.893 54.153,-1.042 81.142,0.064 0.576,253.117 0.076,506.234 0.25,759.351 -0.1,76.645 0.201,153.291 -0.174,229.936 -27.065,0.851 -54.153,-0.17 -81.243,0.235 -0.801,-161.033 0.051,-322.129 -0.375,-483.182 0.225,-168.794 -0.326,-337.588 0.4,-506.404zm100.996 2.51c14.671,10.633 27.264,23.265 41.359,34.473 101.271,86.173 202.716,172.176 304.062,258.263 1.577,1.702 5.633,3.722 3.38,6.253 -13.319,14.1 -28.992,26.434 -42.486,40.407 -77.787,72.434 -155.148,145.167 -232.835,217.622 -10.465,11.336 -23.759,20.502 -33.823,32.114 -13.92,11.42 -25.212,24.946 -39.708,35.898 0.952,-58.824 0.126,-117.669 0.401,-176.514 0,-132.514 0,-265.048 0,-397.583 -0.2,-16.992 0.401,-33.963 -0.35,-50.933z"/>
  </g>
 </g>
 <g id="Слой_x0020_1_0">
  <metadata id="CorelCorpID_1Corel-Layer"/>
  <path fill="#E31E24" fill-rule="nonzero" d="M632.196 897.108c0,30.101 -7.412,53.752 -22.235,70.953 -14.823,17.201 -33.453,25.801 -55.888,25.801 -41.666,0 -69.71,-34.401 -84.132,-103.204l-20.433 -91.917 -265.618 0 -21.634 93.529c-16.025,67.728 -44.871,101.592 -86.536,101.592 -50.48,0 -75.72,-30.639 -75.72,-92.185 0,-29.295 6.01,-65.847 18.029,-109.924l170.669 -621.376c30.447,-108.848 72.113,-163.407 124.997,-163.407 55.287,0 96.952,49.452 124.996,148.356l179.082 643.415c9.615,33.327 14.423,66.116 14.423,98.367zm-231.965 -298.325l-81.729 -351.54 -2.404 0 -85.334 351.54 169.467 0z"/>
 </g>
</svg>
