<?xml version="1.0" encoding="UTF-8"?>
<!DOCTYPE svg PUBLIC "-//W3C//DTD SVG 1.1//EN" "http://www.w3.org/Graphics/SVG/1.1/DTD/svg11.dtd">
<!-- Creator: CorelDRAW 2017 -->
<svg xmlns="http://www.w3.org/2000/svg" xml:space="preserve" width="100%" height="100%" version="1.1" shape-rendering="geometricPrecision" text-rendering="geometricPrecision" image-rendering="optimizeQuality" fill-rule="evenodd" clip-rule="evenodd"
viewBox="0 0 1482.3 1004.086"
 xmlns:xlink="http://www.w3.org/1999/xlink">
 <g id="Слой_x0020_1">
  <metadata id="CorelCorpID_0Corel-Layer"/>
  <g id="clip.pdf">
   <path fill="#1A1A18" fill-rule="nonzero" d="M1340.058 7.707c11.209,-3.36 22.972,-4.774 34.658,-4.51 7.947,0.554 15.925,1.372 23.624,3.516 3.774,0.823 7.409,2.179 11.064,3.412 0.616,0.274 1.243,0.512 1.874,0.755 2.154,0.746 4.215,1.74 6.255,2.745l0.481 -0.202c0.104,0.207 0.311,0.621 0.414,0.828l0.673 -0.352c0.083,0.217 0.249,0.657 0.332,0.875l0.512 -0.306c0.564,0.409 1.139,0.803 1.698,1.233l0.559 -0.233c0.083,0.207 0.259,0.621 0.342,0.828l0.751 -0.254 0.176 0.554c1.134,0.508 2.128,1.279 3.288,1.735 4.193,2.386 8.076,5.255 11.944,8.123 1.32,0.487 1.853,1.967 3.101,2.568 1.683,0.73 2.501,2.537 4.111,3.365l-0.078 0.259c0.435,0.357 0.865,0.72 1.3,1.082 1.801,1.398 3.22,3.226 4.975,4.686 0.243,0.574 0.533,1.154 1.051,1.537 1.962,1.668 3.127,4.049 5.105,5.711 2.987,4.478 6.456,8.719 8.946,13.528 1.693,2.605 3.148,5.411 4.173,8.341l0.306 -0.052c0.29,0.673 0.549,1.362 0.714,2.082 0.694,0.709 1.036,1.662 0.994,2.651 0.125,0.041 0.378,0.129 0.503,0.17 0.139,0.963 0.492,1.875 0.963,2.718 0.227,0.7 0.455,1.398 0.668,2.108 1.501,4.074 2.764,8.258 3.67,12.513 3.614,14.316 2.708,29.175 2.812,43.806 0,57.629 0,115.259 0,172.888 -0.176,3.298 0.398,6.57 0.258,9.868 -0.005,176.025 0,352.05 0,528.076 0.125,11.26 -0.176,22.573 -2.096,33.699 -3.247,19.99 -10.733,39.26 -21.647,56.309 -0.352,0.492 -0.699,0.999 -1.041,1.517 -0.6,1.103 -1.356,2.118 -2.128,3.117 -1.791,2.884 -3.991,5.483 -5.974,8.232l-0.275 -0.181c-0.854,1.993 -2.619,3.443 -3.96,5.125 -3.914,4.499 -8.051,8.838 -12.566,12.747 -2.397,2.288 -4.944,4.421 -7.579,6.425 -17.179,13.86 -37.583,23.624 -59.048,28.698 -10.717,2.47 -21.704,3.774 -32.69,4.038 -28.714,0.042 -57.5,-8.019 -81.668,-23.624 -16.112,-10.199 -30.194,-23.552 -41.383,-38.985 -17.08,-23.501 -27.16,-52.059 -28.34,-81.099 -0.384,-5.156 -0.156,-10.328 -0.218,-15.49 0.005,-177.812 -0.01,-355.618 0.005,-533.429 14.134,0.031 28.263,-0.016 42.392,0.02 0.021,179.888 -0.025,359.77 0.026,539.653 0.088,7.916 1.357,15.749 2.998,23.474 0.482,1.501 0.839,3.049 1.383,4.54 1.869,6.86 4.757,13.415 7.942,19.747 1.682,2.915 3.334,5.855 5.239,8.651 1.745,3.262 4.427,5.871 6.379,8.988l0.46 -0.564c-0.124,0.58 -0.274,1.185 -0.409,1.791 0.554,0.202 1.119,0.378 1.699,0.533 0.709,1.372 1.982,2.299 3.033,3.402 1.781,1.651 3.179,3.681 5.074,5.219 1.667,1.372 3.003,3.137 4.867,4.281 0.109,0.166 0.336,0.492 0.45,0.653 3.749,2.676 7.409,5.488 11.318,7.937 0.476,0.29 0.896,0.662 1.258,1.113 0.14,-0.062 0.42,-0.182 0.554,-0.238l0.145 0.647c3.314,1.434 6.317,3.582 9.692,4.944 0.829,0.306 1.647,0.678 2.418,1.144 1.222,0.528 2.459,1.031 3.676,1.6 1.382,0.471 2.78,0.917 4.126,1.496 3.122,0.917 6.198,2.004 9.377,2.719l-1.051 0.409c0.538,0.331 1.071,0.16 1.506,-0.249 13.223,3.153 27.031,3.816 40.487,1.89 4.401,-0.544 8.683,-1.704 13,-2.62 7.73,-2.376 15.351,-5.208 22.413,-9.169 1.942,-0.937 3.713,-2.19 5.618,-3.189 4.504,-3.055 9.107,-6.037 13.109,-9.749 1.594,-1.103 2.832,-2.615 4.39,-3.759 0.477,-0.585 1.031,-1.092 1.621,-1.543 1.408,-1.988 3.246,-3.666 5.089,-5.245 0.487,-0.626 0.979,-1.237 1.45,-1.853l0.186 -0.011c0.539,-1.025 1.181,-1.998 2.056,-2.759 2.091,-2.92 4.39,-5.68 6.28,-8.739 1.32,-2.599 3.173,-4.893 4.364,-7.57 5.245,-9.795 8.88,-20.435 10.826,-31.375 2.175,-11.084 1.564,-22.418 1.646,-33.642 -0.005,-173.628 0.011,-347.256 -0.01,-520.884 -0.062,-0.896 0.466,-1.678 0.523,-2.553 0.01,-65.763 0.01,-131.531 0.005,-197.299 0.026,-6.715 -1.103,-13.373 -2.951,-19.814 -0.181,-0.502 -0.357,-1.004 -0.533,-1.501 -0.378,-0.906 -0.73,-1.823 -1.005,-2.765 -1.076,-3.049 -2.671,-5.876 -4.131,-8.75 -4.551,-8.014 -10.557,-15.226 -17.846,-20.89 -1.393,-1.077 -2.713,-2.299 -4.37,-2.956l0.295 -0.363c-1.46,-0.274 -2.583,-1.315 -3.836,-2.03 -1.921,-1.045 -3.852,-2.065 -5.794,-3.08 -0.254,-0.135 -0.766,-0.399 -1.02,-0.533 -0.921,-0.244 -1.796,-0.616 -2.63,-1.067 -2.449,-0.678 -4.799,-1.682 -7.259,-2.325 -11.188,-2.925 -23.101,-2.992 -34.32,-0.196 -1.73,0.559 -3.526,0.885 -5.229,1.527 -4.846,1.786 -9.599,3.919 -13.969,6.684 -0.88,0.601 -1.797,1.149 -2.656,1.781 -2.713,1.885 -5.177,4.106 -7.864,6.001l0.222 0.611 -0.766 -0.446 0.093 0.513c-0.316,0.378 -0.637,0.756 -0.947,1.134 -0.994,0.388 -1.491,1.367 -2.149,2.133 -1.165,1.496 -2.816,2.604 -3.635,4.364l-0.507 -0.429 0.021 0.683c-1.041,1.667 -2.423,3.101 -3.453,4.784 -0.549,1.056 -1.186,2.061 -1.792,3.086 -0.14,0.269 -0.424,0.807 -0.569,1.076l-0.492 -0.02c0.026,0.228 0.077,0.683 0.103,0.911l-0.367 0.036c-0.539,1.445 -1.45,2.729 -1.843,4.23l-0.352 -0.186c-0.068,1.015 -0.378,1.978 -0.886,2.853 -3.272,8.055 -4.892,16.795 -4.789,25.482 0,192.07 0.062,384.14 0.036,576.215 -0.046,5.1 -0.217,10.355 1.6,15.217 0.192,0.476 0.383,0.968 0.575,1.465 0.559,1.273 1.082,2.568 1.817,3.764 0.715,1.289 1.724,2.392 2.573,3.603 0.855,1.522 2.232,2.646 3.547,3.759 1.248,1.372 2.92,2.268 4.395,3.376 0.694,0.3 1.357,0.668 2.014,1.061 1.207,0.507 2.418,1.015 3.64,1.496 5.41,1.667 11.292,1.983 16.775,0.471 1.579,-0.393 3.075,-1.051 4.639,-1.496 4.343,-2.361 8.294,-5.415 11.462,-9.226 1.486,-2.371 3.081,-4.691 4.039,-7.341 0.181,-0.513 0.362,-1.02 0.554,-1.517 1.719,-5.4 1.232,-11.111 1.299,-16.687 0,-125.474 -0.005,-250.947 0.005,-376.426 13.021,0.016 26.043,0.006 39.064,0.011 0.015,127.373 0,254.747 0.01,382.121 0.207,13.595 -3.609,27.274 -10.992,38.705 -4.292,6.741 -9.692,12.82 -16.049,17.676 -2.17,1.657 -4.339,3.36 -6.757,4.654 -2.179,1.357 -4.421,2.636 -6.761,3.697 -11.676,5.483 -24.909,7.714 -37.723,6.13 -8.786,-0.999 -17.313,-3.816 -25.115,-7.952 -17.246,-9.34 -30.319,-26.079 -34.896,-45.188 -1.491,-6.125 -2.133,-12.447 -2.06,-18.737 0.005,-126.328 -0.005,-252.651 0.005,-378.973 0.357,-3.635 0.197,-7.285 0.228,-10.93 0,-59.016 0,-118.033 0,-177.05 0.088,-6.042 -0.244,-12.099 0.305,-18.126 0.404,-7.611 1.647,-15.195 3.718,-22.532 0.119,-0.564 0.289,-1.113 0.522,-1.641 0.213,-0.947 0.435,-1.885 0.606,-2.837 0.114,-0.031 0.337,-0.098 0.451,-0.13 0.595,-3.106 1.827,-6.114 3.205,-8.946l-0.239 -0.528c0.161,-0.088 0.492,-0.269 0.658,-0.363 0.109,-0.942 0.564,-1.796 1.056,-2.593 0.243,-0.72 0.476,-1.455 0.916,-2.087 0.187,-0.274 0.56,-0.818 0.746,-1.092 -0.052,-0.125 -0.15,-0.363 -0.202,-0.487 0.357,-0.518 0.725,-1.035 1.098,-1.548 0.238,-0.554 0.471,-1.113 0.693,-1.672 0.15,-0.073 0.461,-0.207 0.616,-0.28l-0.217 -0.456c1.098,-1.092 1.486,-2.671 2.495,-3.836 0.368,-0.916 0.85,-1.786 1.512,-2.521 0.446,-0.751 0.953,-1.465 1.336,-2.247 0.306,-0.264 0.611,-0.523 0.916,-0.782 0.456,-1.527 1.989,-2.511 2.568,-4.038l0.498 0.512c-0.42,-1.439 1.159,-2.107 1.775,-3.148 0.409,-0.75 1,-1.356 1.667,-1.874 1.015,-1.299 2.196,-2.459 3.392,-3.588l-0.099 -0.445 0.357 -0.01c2.123,-2.874 4.934,-5.193 7.704,-7.435 1.005,-0.777 1.611,-2.211 2.977,-2.392l-0.093 -0.233c0.709,-0.533 1.367,-1.144 2.014,-1.76 1.315,-0.71 2.516,-1.605 3.645,-2.579 2.848,-1.993 5.819,-3.883 8.781,-5.752 0.688,-0.378 1.377,-0.761 2.097,-1.092 0.492,-0.285 0.983,-0.58 1.475,-0.875 1.362,-0.461 2.439,-1.528 3.868,-1.828l0.186 -0.549c0.207,0.057 0.616,0.166 0.823,0.223l0.223 -0.777 0.569 0.239c0.596,-0.508 1.362,-0.72 2.025,-1.114l0.497 0.094c2.055,-1.481 4.665,-1.963 6.953,-3.045 2.045,-0.45 3.961,-1.356 5.995,-1.858z"/>
  </g>
  <g id="flag.pdf">
   <path fill="#007239" fill-rule="nonzero" d="M681.891 0.718c26.989,-0.893 54.153,-1.042 81.142,0.064 0.576,253.117 0.076,506.234 0.25,759.351 -0.1,76.645 0.201,153.291 -0.174,229.936 -27.065,0.851 -54.153,-0.17 -81.243,0.235 -0.801,-161.033 0.051,-322.129 -0.375,-483.182 0.225,-168.794 -0.326,-337.588 0.4,-506.404zm100.996 2.51c14.671,10.633 27.264,23.265 41.359,34.473 101.271,86.173 202.716,172.176 304.062,258.263 1.577,1.702 5.633,3.722 3.38,6.253 -13.319,14.1 -28.992,26.434 -42.486,40.407 -77.787,72.434 -155.148,145.167 -232.835,217.622 -10.465,11.336 -23.759,20.502 -33.823,32.114 -13.92,11.42 -25.212,24.946 -39.708,35.898 0.952,-58.824 0.126,-117.669 0.401,-176.514 0,-132.514 0,-265.048 0,-397.583 -0.2,-16.992 0.401,-33.963 -0.35,-50.933z"/>
  </g>
 </g>
 <g id="Слой_x0020_1_0">
  <metadata id="CorelCorpID_1Corel-Layer"/>
  <path fill="#E31E24" fill-rule="nonzero" d="M632.196 897.108c0,30.101 -7.412,53.752 -22.235,70.953 -14.823,17.201 -33.453,25.801 -55.888,25.801 -41.666,0 -69.71,-34.401 -84.132,-103.204l-20.433 -91.917 -265.618 0 -21.634 93.529c-16.025,67.728 -44.871,101.592 -86.536,101.592 -50.48,0 -75.72,-30.639 -75.72,-92.185 0,-29.295 6.01,-65.847 18.029,-109.924l170.669 -621.376c30.447,-108.848 72.113,-163.407 124.997,-163.407 55.287,0 96.952,49.452 124.996,148.356l179.082 643.415c9.615,33.327 14.423,66.116 14.423,98.367zm-231.965 -298.325l-81.729 -351.54 -2.404 0 -85.334 351.54 169.467 0z"/>
 </g>
</svg>
