<?xml version="1.0" encoding="UTF-8"?>
<!DOCTYPE svg PUBLIC "-//W3C//DTD SVG 1.1//EN" "http://www.w3.org/Graphics/SVG/1.1/DTD/svg11.dtd">
<!-- Creator: CorelDRAW 2018 (64-Bit) -->
<svg xmlns="http://www.w3.org/2000/svg" xml:space="preserve" width="100%" height="100%" version="1.1" shape-rendering="geometricPrecision" text-rendering="geometricPrecision" image-rendering="optimizeQuality" fill-rule="evenodd" clip-rule="evenodd"
viewBox="0 0 10367 1905"
 xmlns:xlink="http://www.w3.org/1999/xlink">
 <g id="Слой_x0020_1">
  <metadata id="CorelCorpID_0Corel-Layer"/>
  <rect fill="#FDEBE4" width="10367" height="1876"/>
  <polygon fill="#E30A10" points="0,0 7168,0 7917,1905 0,1905 "/>
  <path fill="#FEFEFE" fill-rule="nonzero" d="M1087 1266l332 -867 126 0 353 867 -131 0 -100 -263 -365 0 -94 263 -122 0zm249 -356l295 0 -90 -240c-27,-73 -48,-133 -62,-181 -12,56 -28,112 -48,167l-95 254z"/>
  <path id="1" fill="#FEFEFE" fill-rule="nonzero" d="M1992 400l115 0 0 380c52,0 89,-10 110,-31 21,-20 48,-69 82,-147 24,-57 44,-97 60,-121 16,-24 38,-43 67,-59 29,-16 61,-24 95,-24 44,0 67,0 70,1l0 99c-4,0 -12,0 -23,-1 -13,0 -20,-1 -23,-1 -37,0 -64,9 -82,27 -18,18 -39,56 -62,114 -29,73 -54,120 -74,139 -20,19 -44,34 -72,46 56,15 111,67 166,155l179 288 -142 0 -145 -235c-40,-65 -73,-110 -100,-134 -27,-24 -61,-37 -104,-37l0 405 -115 0 0 -867z"/>
  <polygon id="2" fill="#FEFEFE" fill-rule="nonzero" points="2697,400 2812,400 2812,1164 3262,1164 3262,400 3377,400 3377,1164 3456,1164 3456,1507 3354,1507 3354,1266 2697,1266 "/>
  <polygon id="3" fill="#FEFEFE" fill-rule="nonzero" points="3592,400 3696,400 3696,1086 4158,400 4271,400 4271,1266 4167,1266 4167,582 3707,1266 3592,1266 "/>
  <path id="4" fill="#FEFEFE" fill-rule="nonzero" d="M5145 1266l0 -867 -384 0c-77,0 -136,8 -176,23 -40,16 -72,43 -96,82 -24,39 -36,83 -36,131 0,62 20,113 60,156 40,42 101,69 184,80 -30,15 -53,29 -69,43 -33,31 -65,69 -95,115l-150 236 143 0 115 -180c33,-52 61,-92 83,-120 22,-28 41,-47 58,-58 17,-11 34,-19 52,-23 13,-3 34,-4 64,-4l133 0 0 385 115 0zm-115 -484l-246 0c-52,0 -93,-5 -123,-16 -29,-11 -52,-28 -67,-52 -15,-24 -23,-50 -23,-78 0,-41 15,-75 44,-101 30,-26 76,-40 140,-40l274 0 0 287z"/>
  <path id="5" fill="#FEFEFE" fill-rule="nonzero" d="M5377 1051l-33 -459 0 -192 132 0 0 192 -30 459 -69 0zm-28 215l0 -121 122 0 0 121 -122 0z"/>
  <path fill="#E30A10" fill-rule="nonzero" d="M8595 1671l393 -1461 149 0 417 1461 -154 0 -119 -443 -431 0 -111 443 -144 0zm295 -600l349 0 -107 -405c-32,-123 -57,-225 -73,-305 -14,95 -33,189 -57,281l-112 429z"/>
 </g>
</svg>
