<?xml version="1.0" encoding="UTF-8"?>
<!DOCTYPE svg PUBLIC "-//W3C//DTD SVG 1.1//EN" "http://www.w3.org/Graphics/SVG/1.1/DTD/svg11.dtd">
<!-- Creator: CorelDRAW 2018 (64-Bit) -->
<svg xmlns="http://www.w3.org/2000/svg" xml:space="preserve" width="100%" height="100%" version="1.1" shape-rendering="geometricPrecision" text-rendering="geometricPrecision" image-rendering="optimizeQuality" fill-rule="evenodd" clip-rule="evenodd"
viewBox="0 0 9700 3100"
 xmlns:xlink="http://www.w3.org/1999/xlink">
 <g id="Слой_x0020_1">
  <metadata id="CorelCorpID_0Corel-Layer"/>
  <path fill="black" fill-rule="nonzero" d="M0 0l9700 0 0 3100 -9700 0 0 -3100zm3256 487c-55,24 -80,86 -90,143 21,5 43,10 64,15 2,-59 45,-119 107,-115 58,-7 116,59 83,114 -22,45 -76,45 -119,45 0,20 0,39 0,59 53,-5 126,4 144,66 17,62 -43,114 -100,112 -63,6 -109,-52 -124,-109 -21,6 -42,11 -63,17 18,61 55,123 119,141 68,17 151,11 202,-44 37,-36 48,-95 32,-144 -13,-35 -42,-61 -76,-75 57,-33 78,-112 44,-169 -43,-78 -148,-89 -223,-56zm-1585 245c-36,63 -49,139 -33,210 107,0 210,-57 274,-144 59,-78 88,-180 79,-278 -134,6 -255,95 -320,212zm1979 -109c-42,14 -64,56 -75,97 20,3 41,6 61,8 8,-27 23,-58 53,-64 34,-6 74,-9 103,14 20,16 18,44 21,67 -68,28 -151,9 -211,56 -52,41 -47,134 12,165 65,33 149,16 201,-34 4,15 8,29 13,44 22,0 44,0 66,1 -30,-59 -16,-127 -20,-190 -2,-53 12,-121 -38,-156 -56,-33 -127,-30 -186,-8zm616 36c1,-11 2,-33 3,-44 -19,0 -38,0 -57,0 1,167 0,333 0,500 20,0 40,0 60,0 0,-58 1,-116 0,-174 57,71 174,49 217,-27 42,-75 41,-175 -5,-248 -48,-73 -166,-79 -218,-7zm708 -41c-39,15 -61,54 -73,93 19,3 39,7 58,10 13,-32 38,-66 76,-61 40,-3 69,50 43,82 -18,27 -53,21 -80,23 0,16 0,33 0,49 22,0 44,-1 65,4 37,10 52,64 26,92 -45,51 -130,14 -141,-49 -19,5 -38,9 -57,13 8,48 41,94 90,105 52,10 114,11 155,-30 46,-45 36,-134 -22,-163 34,-24 51,-70 32,-109 -25,-68 -111,-82 -171,-59zm953 52c-39,55 -43,129 -29,194 13,57 59,106 116,116 51,9 108,6 150,-29 27,-21 42,-52 52,-84 -21,-2 -41,-5 -62,-8 -13,25 -27,54 -54,66 -37,16 -84,9 -112,-22 -24,-23 -29,-58 -36,-89 88,-1 176,0 264,0 1,-53 -5,-110 -41,-151 -61,-76 -192,-71 -249,8zm-1963 -55c0,121 0,241 0,362 21,0 42,0 62,0 0,-103 0,-207 0,-310 47,0 94,-1 141,1 0,-18 1,-35 1,-53 -68,0 -136,0 -204,0zm581 0c46,120 89,241 135,361 -11,26 -15,58 -39,76 -21,16 -48,7 -71,4 5,20 -1,45 12,61 32,10 70,7 95,-17 26,-26 38,-63 51,-96 48,-129 95,-259 143,-388 -21,0 -42,0 -62,0 -32,94 -72,186 -97,283 -36,-93 -66,-190 -101,-283 -22,0 -44,0 -66,0zm685 0c1,121 0,241 0,362 22,0 43,0 65,0 54,-90 109,-178 162,-269 3,89 0,179 1,269 21,0 41,0 62,0 0,-121 0,-241 0,-362 -22,0 -45,0 -67,1 -52,91 -110,180 -162,271 -4,-91 0,-182 -1,-272 -20,0 -41,0 -61,0zm346 52c38,0 76,0 114,0 0,103 0,207 0,310 20,0 41,0 61,0 0,-103 0,-206 0,-310 38,0 76,0 114,1 0,-18 0,-35 0,-53 -96,1 -193,0 -289,0 0,17 0,35 0,52zm901 -52c0,121 0,241 0,362 59,-1 118,1 176,-1 39,-2 86,-16 103,-56 25,-47 6,-112 -44,-132 62,-38 46,-145 -23,-164 -70,-16 -142,-6 -213,-9zm-4837 425c-65,2 -124,-25 -184,-47 -121,-40 -257,-12 -363,58 -92,61 -152,163 -178,270 -33,146 -36,300 -4,447 46,212 164,400 309,555 38,40 92,65 147,63 45,1 87,-17 127,-35 81,-37 175,-48 262,-27 63,14 119,53 184,59 78,11 155,-30 204,-91 95,-122 166,-260 250,-390 -60,-34 -116,-75 -160,-129 -81,-95 -122,-228 -93,-352 23,-112 96,-207 183,-276 -84,-120 -230,-193 -375,-179 -109,1 -201,76 -310,73zm4477 200c-84,18 -164,65 -210,140 -56,91 -58,216 1,305 47,70 121,115 195,147 65,27 135,48 188,98 65,60 64,178 -2,237 -43,38 -102,51 -158,51 -87,-2 -175,-27 -246,-79 -15,48 -29,97 -45,144 108,70 243,88 369,72 83,-11 167,-47 223,-114 75,-88 92,-220 50,-328 -32,-79 -102,-131 -175,-168 -77,-41 -166,-60 -232,-120 -51,-45 -61,-130 -21,-186 30,-43 83,-64 134,-67 80,-5 163,11 230,57 17,-46 31,-94 48,-141 -104,-61 -232,-72 -348,-50zm-2791 7c-123,366 -243,732 -366,1098 56,0 113,-1 169,0 38,-112 73,-225 110,-337 117,2 234,1 351,1 38,112 74,225 113,336 58,-1 116,0 174,0 -124,-366 -244,-733 -369,-1098 -61,1 -121,1 -181,0zm3308 165c0,46 0,92 0,138 -39,-1 -77,-1 -116,-1 0,45 0,90 0,134 39,0 77,0 116,0 0,141 -1,281 1,422 3,73 13,155 69,207 77,67 190,57 281,28 -2,-45 -5,-90 -7,-136 -43,13 -91,23 -134,6 -40,-22 -46,-74 -47,-115 0,-137 0,-275 0,-412 65,1 130,0 196,1 0,-45 0,-90 0,-135 -65,1 -130,-1 -195,1 -1,-64 0,-127 -1,-191 -53,19 -108,35 -162,53zm-2546 244c-1,-36 -5,-71 -6,-107 -50,-1 -100,0 -150,0 3,63 6,126 6,189 0,307 0,613 0,920 55,0 110,-1 164,1 0,-131 1,-261 0,-392 79,91 212,115 323,80 102,-30 184,-114 221,-214 34,-91 42,-192 27,-287 -14,-92 -56,-182 -127,-242 -131,-114 -356,-93 -457,52zm836 -1c-1,-36 -3,-71 -6,-107 -50,0 -100,0 -149,0 3,76 8,153 7,229 0,294 0,587 0,881 55,-1 109,0 164,-1 -1,-130 2,-261 -2,-391 87,100 238,119 355,69 82,-34 147,-104 183,-186 38,-89 47,-188 37,-283 -12,-100 -54,-199 -132,-263 -132,-113 -354,-91 -456,52zm2396 -118c-63,11 -123,38 -172,79 -74,61 -120,153 -135,249 -16,105 -5,218 47,312 47,87 132,153 227,174 161,40 348,-30 428,-183 52,-95 62,-209 47,-315 -16,-104 -71,-204 -158,-261 -83,-56 -187,-70 -284,-55zm691 125c-1,-38 -1,-76 -4,-114 -49,0 -98,0 -147,0 6,96 7,193 8,289 -6,169 0,338 -4,507 55,0 110,0 165,0 0,-146 0,-292 0,-438 1,-76 32,-159 101,-197 41,-25 91,-18 136,-15 0,-52 0,-104 0,-157 -102,-29 -208,32 -256,124zm335 10c-63,86 -87,196 -84,302 3,98 32,198 99,270 69,77 172,114 272,114 96,3 193,-13 281,-54 -12,-42 -21,-85 -33,-127 -41,20 -85,33 -130,39 -80,10 -169,11 -238,-39 -62,-44 -88,-122 -91,-195 175,3 350,0 525,4 13,-86 7,-176 -25,-257 -27,-73 -80,-138 -150,-171 -145,-66 -333,-21 -425,114zm-4015 -1008c38,-22 86,1 106,38 23,43 23,96 15,144 -7,40 -36,78 -76,85 -51,11 -96,-35 -103,-85 -13,-64 -4,-148 58,-182zm1656 25c35,-40 106,-41 140,1 18,19 21,46 27,70 -66,0 -132,0 -197,0 5,-26 11,-52 30,-71zm553 -23c42,1 85,-4 125,10 36,15 29,71 -5,84 -39,11 -80,3 -120,7 -1,-33 -1,-67 -1,-100zm-2835 154c37,-5 74,-13 110,-24 -3,33 0,71 -23,99 -29,35 -79,46 -121,34 -31,-9 -49,-52 -29,-79 13,-21 40,-26 63,-30zm2835 -3c43,2 86,-3 129,4 39,10 50,71 13,92 -46,16 -95,7 -142,10 0,-35 0,-71 0,-106zm-3266 1053c49,-146 101,-292 140,-441 31,151 90,295 138,441 -93,0 -185,0 -278,0zm5222 -165c56,-57 152,-66 218,-22 54,38 75,108 79,172 -123,-2 -246,-2 -369,0 10,-55 31,-111 72,-150zm-4234 -32c64,-15 135,5 179,54 50,55 69,133 72,207 0,76 -15,157 -62,218 -54,69 -156,90 -234,53 -72,-33 -118,-112 -115,-192 3,-75 -11,-155 23,-225 27,-56 78,-101 138,-115zm834 1c61,-15 130,1 175,47 50,51 72,124 77,194 4,82 -10,171 -62,237 -52,65 -146,88 -222,57 -74,-27 -127,-105 -126,-185 0,-54 -2,-107 1,-161 6,-89 71,-170 156,-190zm2240 -5c59,-15 126,-4 172,38 59,52 84,132 90,209 4,80 -12,164 -59,229 -36,51 -96,85 -159,83 -74,1 -139,-50 -172,-115 -46,-90 -48,-200 -17,-295 22,-69 73,-131 144,-149z"/>
 </g>
</svg>
