<?xml version="1.0" encoding="UTF-8"?>
<!DOCTYPE svg PUBLIC "-//W3C//DTD SVG 1.1//EN" "http://www.w3.org/Graphics/SVG/1.1/DTD/svg11.dtd">
<!-- Creator: CorelDRAW 2017 -->
<svg xmlns="http://www.w3.org/2000/svg" xml:space="preserve" width="100%" height="100%" version="1.1" shape-rendering="geometricPrecision" text-rendering="geometricPrecision" image-rendering="optimizeQuality" fill-rule="evenodd" clip-rule="evenodd"
viewBox="0 0 1410 1116"
 xmlns:xlink="http://www.w3.org/1999/xlink">
 <g id="Слой_x0020_1">
  <metadata id="CorelCorpID_0Corel-Layer"/>
  <g id="_1680807097248">
   <path fill="#808286" stroke="#808286" stroke-width="20" stroke-miterlimit="22.9256" d="M173 421l1076 0c83,0 150,68 150,150l0 360 -1389 0 0 -347c0,-90 73,-163 163,-163z"/>
   <path fill="none" stroke="#808286" stroke-width="150" stroke-miterlimit="22.9256" d="M409 75l613 0c124,0 225,101 225,225l0 225 -1063 0 0 -225c0,-124 101,-225 225,-225z"/>
   <rect fill="#FEFEFE" stroke="#FEFEFE" stroke-width="20" stroke-miterlimit="22.9256" x="117" y="660" width="250" height="140" rx="81" ry="45"/>
   <rect fill="#FEFEFE" stroke="#FEFEFE" stroke-width="20" stroke-miterlimit="22.9256" x="1060" y="660" width="250" height="140" rx="81" ry="45"/>
   <rect fill="#808286" stroke="#808286" stroke-width="20" stroke-miterlimit="22.9256" x="14" y="941" width="215" height="165"/>
   <rect fill="#808286" stroke="#808286" stroke-width="20" stroke-miterlimit="22.9256" x="1185" y="941" width="215" height="165"/>
  </g>
 </g>
</svg>
