<?xml version="1.0" encoding="UTF-8"?>
<!DOCTYPE svg PUBLIC "-//W3C//DTD SVG 1.1//EN" "http://www.w3.org/Graphics/SVG/1.1/DTD/svg11.dtd">
<!-- Creator: CorelDRAW 2017 -->
<svg xmlns="http://www.w3.org/2000/svg" xml:space="preserve" width="100%" height="100%" version="1.1" shape-rendering="geometricPrecision" text-rendering="geometricPrecision" image-rendering="optimizeQuality" fill-rule="evenodd" clip-rule="evenodd"
viewBox="0 0 67.093 173.462"
 xmlns:xlink="http://www.w3.org/1999/xlink">
 <g id="Слой_x0020_1">
  <metadata id="CorelCorpID_0Corel-Layer"/>
  <g id="clip.pdf">
   <path fill="#1A1A18" fill-rule="nonzero" d="M35.35 0.788c2.502,-0.583 5.127,-0.828 7.734,-0.782 1.774,0.096 3.554,0.238 5.272,0.609 0.843,0.143 1.654,0.378 2.47,0.592 0.137,0.047 0.277,0.088 0.418,0.131 0.48,0.129 0.94,0.301 1.395,0.475l0.108 -0.035c0.023,0.036 0.069,0.108 0.092,0.144l0.151 -0.061c0.018,0.037 0.055,0.114 0.074,0.151l0.114 -0.053c0.126,0.071 0.254,0.139 0.379,0.214l0.125 -0.04c0.018,0.035 0.057,0.107 0.076,0.143l0.167 -0.044 0.04 0.096c0.253,0.088 0.475,0.222 0.733,0.301 0.936,0.413 1.803,0.91 2.666,1.407 0.294,0.085 0.413,0.341 0.692,0.446 0.375,0.126 0.558,0.439 0.917,0.583l-0.017 0.045c0.097,0.061 0.193,0.124 0.29,0.187 0.402,0.242 0.719,0.559 1.11,0.812 0.055,0.1 0.119,0.2 0.235,0.267 0.438,0.289 0.698,0.701 1.139,0.989 0.667,0.776 1.441,1.511 1.996,2.345 0.378,0.451 0.703,0.937 0.932,1.445l0.068 -0.009c0.065,0.117 0.122,0.236 0.159,0.361 0.155,0.123 0.231,0.288 0.222,0.459 0.028,0.008 0.084,0.023 0.112,0.03 0.031,0.167 0.11,0.325 0.215,0.471 0.051,0.121 0.102,0.242 0.149,0.365 0.335,0.706 0.617,1.431 0.819,2.169 0.807,2.481 0.605,5.056 0.628,7.591 0,9.988 0,19.975 0,29.962 -0.04,0.572 0.089,1.139 0.057,1.71 -0.001,30.506 0,61.011 0,91.516 0.028,1.952 -0.039,3.912 -0.467,5.841 -0.725,3.464 -2.396,6.803 -4.831,9.758 -0.079,0.085 -0.156,0.173 -0.232,0.263 -0.134,0.191 -0.303,0.367 -0.475,0.54 -0.4,0.5 -0.891,0.95 -1.333,1.427l-0.062 -0.032c-0.19,0.346 -0.584,0.597 -0.884,0.889 -0.873,0.779 -1.796,1.531 -2.804,2.209 -0.535,0.396 -1.103,0.766 -1.691,1.113 -3.834,2.402 -8.387,4.094 -13.177,4.973 -2.392,0.428 -4.844,0.655 -7.295,0.7 -6.408,0.008 -12.832,-1.39 -18.225,-4.094 -3.596,-1.767 -6.738,-4.081 -9.235,-6.756 -3.812,-4.073 -6.061,-9.022 -6.325,-14.054 -0.085,-0.894 -0.034,-1.79 -0.048,-2.685 0.001,-30.815 -0.003,-61.629 0.001,-92.444 3.154,0.005 6.307,-0.003 9.46,0.004 0.005,31.174 -0.006,62.348 0.006,93.522 0.02,1.372 0.303,2.729 0.669,4.068 0.107,0.26 0.187,0.529 0.308,0.787 0.417,1.189 1.062,2.325 1.773,3.422 0.375,0.505 0.744,1.015 1.169,1.499 0.389,0.566 0.988,1.018 1.423,1.558l0.103 -0.098c-0.028,0.101 -0.061,0.206 -0.091,0.311 0.124,0.035 0.249,0.065 0.379,0.092 0.158,0.238 0.442,0.398 0.677,0.59 0.397,0.286 0.709,0.638 1.132,0.904 0.372,0.238 0.67,0.544 1.086,0.742 0.025,0.029 0.075,0.085 0.101,0.113 0.836,0.464 1.653,0.951 2.525,1.376 0.107,0.05 0.2,0.114 0.281,0.192 0.031,-0.01 0.094,-0.031 0.124,-0.041l0.032 0.112c0.74,0.249 1.41,0.621 2.163,0.857 0.185,0.053 0.367,0.118 0.54,0.199 0.272,0.091 0.548,0.178 0.82,0.277 0.308,0.081 0.62,0.159 0.921,0.259 0.696,0.159 1.383,0.347 2.092,0.471l-0.234 0.071c0.12,0.057 0.239,0.028 0.336,-0.043 2.951,0.546 6.032,0.661 9.035,0.327 0.982,-0.094 1.937,-0.295 2.901,-0.454 1.725,-0.411 3.426,-0.902 5.002,-1.589 0.433,-0.162 0.828,-0.379 1.253,-0.552 1.005,-0.53 2.033,-1.047 2.926,-1.69 0.356,-0.191 0.632,-0.453 0.979,-0.651 0.107,-0.102 0.23,-0.19 0.362,-0.268 0.314,-0.344 0.724,-0.635 1.136,-0.909 0.108,-0.108 0.218,-0.214 0.323,-0.321l0.042 -0.002c0.12,-0.177 0.263,-0.346 0.459,-0.478 0.466,-0.506 0.979,-0.984 1.401,-1.514 0.295,-0.451 0.708,-0.848 0.974,-1.312 1.17,-1.698 1.982,-3.541 2.416,-5.437 0.485,-1.921 0.349,-3.885 0.367,-5.831 -0.001,-30.09 0.003,-60.18 -0.002,-90.27 -0.014,-0.155 0.104,-0.29 0.117,-0.442 0.002,-11.397 0.002,-22.794 0.001,-34.192 0.006,-1.164 -0.246,-2.318 -0.659,-3.434 -0.04,-0.087 -0.079,-0.174 -0.119,-0.26 -0.084,-0.157 -0.163,-0.316 -0.224,-0.479 -0.24,-0.529 -0.596,-1.019 -0.922,-1.517 -1.015,-1.388 -2.356,-2.638 -3.982,-3.62 -0.311,-0.187 -0.606,-0.398 -0.976,-0.512l0.066 -0.063c-0.325,-0.048 -0.576,-0.228 -0.856,-0.352 -0.428,-0.181 -0.859,-0.358 -1.293,-0.534 -0.056,-0.023 -0.171,-0.069 -0.227,-0.092 -0.206,-0.042 -0.401,-0.107 -0.587,-0.185 -0.547,-0.117 -1.071,-0.292 -1.62,-0.403 -2.497,-0.507 -5.155,-0.518 -7.659,-0.034 -0.386,0.097 -0.787,0.154 -1.167,0.265 -1.081,0.309 -2.142,0.679 -3.117,1.158 -0.197,0.104 -0.401,0.199 -0.593,0.309 -0.605,0.326 -1.155,0.711 -1.755,1.04l0.05 0.106 -0.171 -0.078 0.021 0.089c-0.071,0.066 -0.143,0.131 -0.212,0.197 -0.222,0.067 -0.333,0.237 -0.479,0.369 -0.26,0.26 -0.629,0.452 -0.811,0.757l-0.114 -0.075 0.005 0.119c-0.232,0.289 -0.541,0.537 -0.771,0.829 -0.122,0.183 -0.264,0.357 -0.399,0.535 -0.032,0.046 -0.095,0.14 -0.128,0.186l-0.109 -0.003c0.005,0.039 0.017,0.118 0.023,0.158l-0.082 0.006c-0.12,0.25 -0.324,0.473 -0.412,0.733l-0.078 -0.032c-0.015,0.175 -0.084,0.342 -0.198,0.494 -0.73,1.396 -1.092,2.911 -1.068,4.416 0,33.286 0.013,66.572 0.008,99.859 -0.011,0.884 -0.049,1.794 0.357,2.637 0.042,0.083 0.085,0.168 0.128,0.254 0.125,0.221 0.241,0.445 0.405,0.652 0.16,0.224 0.385,0.415 0.575,0.625 0.19,0.263 0.498,0.458 0.791,0.651 0.279,0.238 0.652,0.393 0.981,0.585 0.155,0.052 0.303,0.116 0.449,0.184 0.27,0.088 0.54,0.176 0.813,0.259 1.207,0.289 2.52,0.344 3.743,0.082 0.353,-0.068 0.686,-0.182 1.035,-0.259 0.97,-0.409 1.851,-0.939 2.558,-1.599 0.332,-0.411 0.688,-0.813 0.902,-1.273 0.04,-0.088 0.08,-0.176 0.123,-0.262 0.384,-0.936 0.275,-1.926 0.29,-2.892 0,-21.745 -0.001,-43.49 0.001,-65.235 2.906,0.002 5.812,0.001 8.718,0.002 0.003,22.074 0,44.148 0.002,66.222 0.046,2.356 -0.805,4.726 -2.453,6.707 -0.958,1.169 -2.163,2.222 -3.582,3.064 -0.484,0.287 -0.968,0.582 -1.507,0.806 -0.487,0.235 -0.987,0.457 -1.509,0.641 -2.606,0.95 -5.559,1.337 -8.418,1.062 -1.961,-0.173 -3.864,-0.661 -5.605,-1.378 -3.849,-1.619 -6.766,-4.519 -7.787,-7.831 -0.333,-1.062 -0.476,-2.157 -0.46,-3.247 0.001,-21.893 -0.001,-43.785 0.001,-65.677 0.08,-0.63 0.044,-1.262 0.051,-1.894 0,-10.228 0,-20.455 0,-30.683 0.019,-1.047 -0.054,-2.097 0.068,-3.141 0.09,-1.319 0.367,-2.634 0.83,-3.905 0.026,-0.098 0.064,-0.193 0.116,-0.284 0.048,-0.165 0.097,-0.327 0.135,-0.492 0.026,-0.006 0.076,-0.017 0.101,-0.023 0.133,-0.538 0.408,-1.059 0.715,-1.55l-0.053 -0.092c0.036,-0.015 0.11,-0.046 0.147,-0.062 0.024,-0.164 0.126,-0.312 0.235,-0.45 0.055,-0.125 0.107,-0.252 0.205,-0.361 0.042,-0.048 0.125,-0.142 0.166,-0.19 -0.011,-0.021 -0.033,-0.063 -0.045,-0.084 0.08,-0.09 0.162,-0.18 0.245,-0.268 0.053,-0.096 0.105,-0.193 0.155,-0.29 0.033,-0.013 0.103,-0.036 0.137,-0.049l-0.048 -0.079c0.245,-0.189 0.332,-0.463 0.557,-0.664 0.082,-0.159 0.189,-0.31 0.337,-0.437 0.1,-0.131 0.213,-0.254 0.298,-0.39 0.068,-0.046 0.137,-0.09 0.205,-0.135 0.101,-0.265 0.443,-0.435 0.573,-0.7l0.111 0.089c-0.094,-0.25 0.259,-0.366 0.396,-0.546 0.091,-0.13 0.223,-0.235 0.372,-0.325 0.227,-0.225 0.49,-0.426 0.757,-0.621l-0.022 -0.078 0.08 -0.001c0.473,-0.498 1.101,-0.9 1.719,-1.289 0.224,-0.134 0.359,-0.383 0.664,-0.414l-0.021 -0.041c0.159,-0.092 0.305,-0.198 0.45,-0.305 0.293,-0.123 0.561,-0.278 0.813,-0.447 0.636,-0.345 1.299,-0.673 1.96,-0.996 0.153,-0.066 0.307,-0.132 0.468,-0.19 0.109,-0.049 0.219,-0.1 0.329,-0.151 0.304,-0.08 0.544,-0.265 0.863,-0.317l0.042 -0.095c0.046,0.01 0.137,0.028 0.183,0.038l0.05 -0.134 0.127 0.041c0.133,-0.088 0.304,-0.125 0.452,-0.193l0.111 0.016c0.458,-0.256 1.041,-0.34 1.551,-0.527 0.457,-0.078 0.884,-0.235 1.338,-0.322z"/>
  </g>
 </g>
</svg>
