<svg xmlns="http://www.w3.org/2000/svg" shape-rendering="geometricPrecision" text-rendering="geometricPrecision" image-rendering="optimizeQuality" fill-rule="evenodd" clip-rule="evenodd" viewBox="0 0 464.226 464.198"><g><path fill="#fff" d="M158.554 66.761c20.875-9.518 43.595-14.83 66.474-16.11 5.882-.044 11.764-.049 17.645-.009 17.95.962 35.861 4.329 52.787 10.436 9.412 3.168 18.325 7.589 27.124 12.156 3.931 2.387 8.123 4.391 11.816 7.162 9.103 5.811 17.593 12.571 25.491 19.931 3.146 2.731 6.01 5.78 8.852 8.825 10.391 11.371 19.64 23.88 26.978 37.457 1.526 2.802 3.247 5.538 4.302 8.565l.582.755c.437 1.606 1.289 3.044 2.034 4.522 9.218 21.096 14.663 43.927 15.462 66.938.467 3.314.159 6.671.251 10.007.146 2.507-.512 4.964-.375 7.471.128 2.378-.529 4.703-.476 7.082-2.017 20.522-7.356 40.749-16.035 59.467-.808 1.548-1.637 3.093-2.211 4.752-.785 1.055-1.377 2.233-1.756 3.49-4.638 8.34-9.461 16.618-15.228 24.242-2.36 2.939-4.496 6.054-7.007 8.869-1.363 1.876-3.15 3.38-4.496 5.269-1.897 1.955-3.874 3.839-5.547 5.997l-.45.119c-1.081 1.615-2.753 2.66-4.108 4.015-1.412 1.377-2.709 2.877-4.284 4.082-21.467 19.114-47.43 33.151-75.233 40.506-29.895 7.951-61.775 8.221-91.762.587-11.137-2.643-21.855-6.764-32.33-11.331-14.182-6.747-27.689-15.016-39.77-25.076-2.118-1.562-3.976-3.424-6.054-5.035-1.712-1.659-3.314-3.437-5.171-4.942-1.037-.785-2.035-1.655-2.652-2.82l-.667-.035-.022-.865-.666-.053c-.794-1.668-2.374-2.727-3.605-4.037-1.112-.98-1.88-2.246-2.868-3.327-2.264-2.18-3.905-4.898-6.12-7.126-2.409-3.574-5.273-6.831-7.546-10.498-3.102-4.099-5.493-8.666-8.202-13.021-1.32-2.043-2.083-4.39-3.491-6.376-.481-1.708-1.743-3.04-2.237-4.743-9.893-20.355-15.77-42.625-17.584-65.173-.414-2.621.005-5.29-.481-7.902-.194-3.98-.123-7.983-.048-11.967.543-3.005.079-6.076.618-9.081.476-6.866 1.57-13.674 2.762-20.447 1.8-8.247 3.702-16.503 6.614-24.437 2.056-6.085 4.466-12.059 7.241-17.853 1.836-4.602 4.466-8.811 6.716-13.211 2.436-4.125 5.021-8.163 7.563-12.231 5.405-7.603 10.921-15.197 17.495-21.842 3.221-3.962 6.959-7.506 10.851-10.797 2.506-2.811 5.626-4.951 8.428-7.444 8.785-7.047 18.139-13.383 28.019-18.793 4.134-2.016 8.198-4.187 12.377-6.12zm69.726-3.468c-17.672.573-35.265 3.883-51.909 9.857-30.402 10.793-57.538 30.473-77.381 55.884-18.175 23.117-30.221 51.004-34.519 80.096-3.133 21.078-2.374 42.744 2.325 63.535 3.923 17.271 10.511 33.945 19.561 49.173 16.622 28.28 41.583 51.555 70.917 66.227 26.674 13.462 56.939 19.583 86.75 17.831 25.257-1.403 50.179-8.529 72.351-20.708 17.147-9.407 32.692-21.745 45.7-36.359 13.308-14.888 23.987-32.127 31.378-50.682 9.95-24.895 13.841-52.155 11.428-78.846-2.718-31.775-14.711-62.649-33.989-88.034-20.28-26.85-48.595-47.589-80.418-58.576-19.905-6.976-41.124-10.095-62.194-9.398zm-5.869 15.443c4.325-.013 8.649-.11 12.973-.158.755 52.124 1.558 104.249 2.343 156.374 34.938-.808 69.872-1.642 104.81-2.463.106 4.342.163 8.684.331 13.026-34.956.803-69.916 1.602-104.872 2.48l-.123 1.138c-4.302.3-8.636.142-12.951.305-.724-48.873-1.469-97.741-2.197-146.614-.089-8.03-.309-16.057-.314-24.088z"/><path fill="#808285" d="M23.832 8.852c7.567-5.097 16.481-8.168 25.579-8.843l365.376-.009c7.766.477 15.399 2.762 22.208 6.517 4.143 2.48 8.07 5.335 11.495 8.75 4.509 4.611 8.608 9.783 11.026 15.819 3.12 6.822 4.982 14.336 4.677 21.873-.004 120.615.005 241.23-.004 361.841-.123 2.365-.609 4.691-.975 7.025-1.765 7.814-5.127 15.307-10.047 21.648-2.546 2.885-5.216 5.683-8.115 8.22-6.8 5.639-15.011 9.729-23.739 11.261l-.75.287c-1.783.207-3.552.555-5.348.525-1.655-.023-3.354-.159-4.933.432h-356.732c-2.18-.763-4.505-.247-6.742-.583-1.642-.242-3.266-.573-4.898-.847-5.904-1.178-11.336-3.847-16.578-6.715-2.965-1.792-5.608-4.047-8.207-6.315-2.273-2.007-4.086-4.447-6.032-6.755-2.678-3.116-4.342-6.91-6.323-10.467-1.659-4.011-3.115-8.145-3.755-12.452-.711-2.634-.269-5.409-1.015-8.017v-359.803c.684-2.096.287-4.32.662-6.46.454-2.745.962-5.489 1.831-8.132 2.771-9.496 8.481-18.056 15.845-24.617 1.787-1.448 3.627-2.838 5.494-4.183zm134.722 57.909c-4.179 1.933-8.243 4.104-12.377 6.12-9.88 5.41-19.234 11.746-28.019 18.793-2.802 2.493-5.922 4.633-8.428 7.444-3.892 3.291-7.63 6.835-10.851 10.797-6.574 6.645-12.09 14.239-17.495 21.842-2.542 4.068-5.127 8.106-7.563 12.231-2.25 4.4-4.88 8.609-6.716 13.211-2.775 5.794-5.185 11.768-7.241 17.853-2.912 7.934-4.814 16.19-6.614 24.437-1.192 6.773-2.286 13.581-2.762 20.447-.539 3.005-.075 6.076-.618 9.081-.075 3.984-.146 7.987.048 11.967.486 2.612.067 5.281.481 7.902 1.814 22.548 7.691 44.818 17.584 65.173.494 1.703 1.756 3.035 2.237 4.743 1.408 1.986 2.171 4.333 3.491 6.376 2.709 4.355 5.1 8.922 8.202 13.021 2.273 3.667 5.137 6.924 7.546 10.498 2.215 2.228 3.856 4.946 6.12 7.126.988 1.081 1.756 2.347 2.868 3.327 1.231 1.31 2.811 2.369 3.605 4.037l.666.053.022.865.667.035c.617 1.165 1.615 2.035 2.652 2.82 1.857 1.505 3.459 3.283 5.171 4.942 2.078 1.611 3.936 3.473 6.054 5.035 12.081 10.06 25.588 18.329 39.77 25.076 10.475 4.567 21.193 8.688 32.33 11.331 29.987 7.634 61.867 7.364 91.762-.587 27.803-7.355 53.766-21.392 75.233-40.506 1.575-1.205 2.872-2.705 4.284-4.082 1.355-1.355 3.027-2.4 4.108-4.015l.45-.119c1.673-2.158 3.65-4.042 5.547-5.997 1.346-1.889 3.133-3.393 4.496-5.269 2.511-2.815 4.647-5.93 7.007-8.869 5.767-7.624 10.59-15.902 15.228-24.242.379-1.257.971-2.435 1.756-3.49.574-1.659 1.403-3.204 2.211-4.752 8.679-18.718 14.018-38.945 16.035-59.467-.053-2.379.604-4.704.476-7.082-.137-2.507.521-4.964.375-7.471-.092-3.336.216-6.693-.251-10.007-.799-23.011-6.244-45.842-15.462-66.938-.745-1.478-1.597-2.916-2.034-4.522l-.582-.755c-1.055-3.027-2.776-5.763-4.302-8.565-7.338-13.577-16.587-26.086-26.978-37.457-2.842-3.045-5.706-6.094-8.852-8.825-7.898-7.36-16.388-14.12-25.491-19.931-3.693-2.771-7.885-4.775-11.816-7.162-8.799-4.567-17.712-8.988-27.124-12.156-16.926-6.107-34.837-9.474-52.787-10.436-5.881-.04-11.763-.035-17.645.009-22.879 1.28-45.599 6.592-66.474 16.11zm69.726-3.468c21.07-.697 42.289 2.422 62.194 9.398 31.823 10.987 60.138 31.726 80.418 58.576 19.278 25.385 31.271 56.259 33.989 88.034 2.413 26.691-1.478 53.951-11.428 78.846-7.391 18.555-18.07 35.794-31.378 50.682-13.008 14.614-28.553 26.952-45.7 36.359-22.172 12.179-47.094 19.305-72.351 20.708-29.811 1.752-60.076-4.369-86.75-17.831-29.334-14.672-54.295-37.947-70.917-66.227-9.05-15.228-15.638-31.902-19.561-49.173-4.699-20.791-5.458-42.457-2.325-63.535 4.298-29.092 16.344-56.979 34.519-80.096 19.843-25.411 46.979-45.091 77.381-55.884 16.644-5.974 34.237-9.284 51.909-9.857zm-5.869 15.443c.005 8.031.225 16.058.314 24.088.728 48.873 1.473 97.741 2.197 146.614 4.315-.163 8.649-.005 12.951-.305l.123-1.138c34.956-.878 69.916-1.677 104.872-2.48-.168-4.342-.225-8.684-.331-13.026-34.938.821-69.872 1.655-104.81 2.463-.785-52.125-1.588-104.25-2.343-156.374-4.324.048-8.648.145-12.973.158z"/></g></svg>