<svg xmlns="http://www.w3.org/2000/svg" shape-rendering="geometricPrecision" text-rendering="geometricPrecision" image-rendering="optimizeQuality" fill-rule="evenodd" clip-rule="evenodd" viewBox="0 0 217 141"><defs><clipPath><path d="M125 117h19l-9 24-10-24z"/></clipPath><clipPath id="a"><path d="M125 117h19l-9 24-10-24z"/></clipPath></defs><g><path fill="#FEFEFE" stroke="#FEFEFE" stroke-miterlimit="22.926" d="M145 1h71v140h-71z"/><ellipse fill="#E31E24" stroke="#E31E24" stroke-width="2" stroke-miterlimit="22.926" cx="179" cy="25" rx="21" ry="22"/><g><path fill="#808286" d="M0 0h111v141h-111z"/><path fill="#FEFEFE" stroke="#FEFEFE" stroke-width="2" stroke-miterlimit="22.926" d="M16 25h77v5h-77zM16 82h77v5h-77zM16 111h77v5h-77z"/><path fill="#808286" d="M124.078 105.944v-75.585l19.956.006v75.585zM124 24v-19c0-2 2-4 4-4h12c2 0 4 2 4 4v19h-20zM125 117h19l-9 23z"/><path fill="none" d="M125 117h19l-9 23z"/><path stroke="#808286" stroke-miterlimit="22.926" d="M125 117l19 24m0-24l-19 24" fill="none" clip-path="url(#a)"/><path fill="#FEFEFE" stroke="#FEFEFE" stroke-width="2" stroke-miterlimit="22.926" d="M16 54h77v5h-77z"/></g></g></svg>