<?xml version="1.0" encoding="UTF-8"?>
<!DOCTYPE svg PUBLIC "-//W3C//DTD SVG 1.1//EN" "http://www.w3.org/Graphics/SVG/1.1/DTD/svg11.dtd">
<!-- Creator: CorelDRAW 2017 -->
<svg xmlns="http://www.w3.org/2000/svg" xml:space="preserve" width="100%" height="100%" version="1.1" shape-rendering="geometricPrecision" text-rendering="geometricPrecision" image-rendering="optimizeQuality" fill-rule="evenodd" clip-rule="evenodd"
viewBox="0 0 6322 9869"
 xmlns:xlink="http://www.w3.org/1999/xlink">
 <g id="Слой_x0020_1">
  <metadata id="CorelCorpID_0Corel-Layer"/>
  <path fill="#EBEBEB" fill-rule="nonzero" d="M6322 8901c0,301 -74,538 -222,710 -148,172 -335,258 -559,258 -417,0 -697,-344 -841,-1032l-204 -919 -2656 0 -216 935c-160,677 -449,1016 -865,1016 -505,0 -757,-306 -757,-922 0,-293 60,-658 180,-1099l1707 -6214c304,-1088 721,-1634 1250,-1634 553,0 970,495 1250,1484l1791 6434c96,333 144,661 144,984zm-2320 -2983l-817 -3515 -24 0 -853 3515 1695 0z"/>
 </g>
</svg>
