<?xml version="1.0" encoding="UTF-8"?>
<!DOCTYPE svg PUBLIC "-//W3C//DTD SVG 1.1//EN" "http://www.w3.org/Graphics/SVG/1.1/DTD/svg11.dtd">
<!-- Creator: CorelDRAW 2018 (64-Bit) -->
<svg xmlns="http://www.w3.org/2000/svg" xml:space="preserve" width="100%" height="100%" version="1.1" shape-rendering="geometricPrecision" text-rendering="geometricPrecision" image-rendering="optimizeQuality" fill-rule="evenodd" clip-rule="evenodd"
viewBox="0 0 4369 4325"
 xmlns:xlink="http://www.w3.org/1999/xlink">
 <g id="Слой_x0020_1">
  <metadata id="CorelCorpID_0Corel-Layer"/>
  <g id="face.pdf">
   <path fill="#3B5998" fill-rule="nonzero" d="M581 4c5,-3 11,-4 16,-4 960,0 1920,0 2880,0 100,0 200,-1 300,1 15,7 33,2 49,4 10,4 22,4 33,7 7,1 15,3 22,5 4,1 8,1 12,2 5,2 9,3 14,5 6,2 12,4 18,6 13,2 25,8 36,14 2,0 6,1 9,1 65,31 127,71 177,123 16,17 34,31 47,51 19,26 39,50 55,78 20,31 34,66 52,98 0,2 1,7 1,9 3,4 5,9 8,13 0,2 1,7 1,9 2,4 5,9 7,13 1,5 2,9 4,14 2,4 3,9 5,13 0,4 1,8 2,13 2,4 3,9 5,13 2,4 3,9 5,13 2,9 4,19 6,28 2,6 3,12 5,18 1,5 1,11 2,16 5,12 1,26 7,37 1,10 1,20 2,29 8,24 1,51 4,76 3,5 4,11 4,16 0,330 0,660 0,990 0,47 1,93 -1,140 -3,5 -4,11 -4,16 0,147 0,294 0,442 0,13 -2,27 4,38 2,253 0,506 1,759 0,164 1,328 -1,492 -9,26 -1,54 -4,80 -5,11 -4,24 -5,36 -6,12 -2,25 -7,37 -1,4 -2,8 -3,12 -2,9 -4,19 -6,28 -1,7 -2,15 -4,22 -1,2 -2,6 -3,8 -2,6 -4,12 -7,18 -2,5 -3,9 -5,14 -1,4 -1,8 -2,12 -2,5 -3,9 -5,14 -2,4 -5,9 -7,14 0,2 -1,7 -1,9 -4,7 -8,15 -12,23 0,2 -1,6 -1,9 -12,23 -23,46 -35,69 -22,34 -43,69 -70,99 -54,69 -127,122 -204,164 -2,0 -7,1 -9,1 -8,4 -15,8 -23,12 -2,0 -6,1 -9,1 -5,2 -9,5 -13,7 -5,1 -9,3 -14,5 -4,1 -8,1 -12,2 -6,2 -12,4 -18,7 -5,2 -9,3 -14,5 -7,0 -14,1 -21,2 -9,4 -18,4 -27,5 -21,9 -44,-2 -64,7 -112,2 -224,0 -336,1 -120,0 -240,0 -360,0 0,-524 0,-1047 0,-1571 197,0 395,0 592,0 41,-199 80,-398 120,-597 10,-48 18,-97 30,-144 -247,-1 -495,0 -742,0 0,-118 -1,-236 0,-354 6,-75 23,-152 63,-217 34,-56 85,-100 144,-127 68,-32 145,-42 219,-46 105,0 210,0 315,0 0,-247 0,-494 0,-741 -212,0 -424,0 -636,0 -88,5 -177,19 -260,49 -106,36 -203,97 -285,174 -96,92 -169,207 -217,331 -40,103 -65,211 -77,320 -1,35 -10,69 -9,104 0,168 0,335 0,503 -141,0 -281,0 -422,0 -57,0 -114,-1 -171,3 0,247 0,494 0,740 30,0 61,1 91,2 122,0 244,0 366,0 46,1 91,-3 137,-2 0,524 0,1047 0,1571 -300,1 -599,0 -899,0 -274,0 -548,1 -822,-1 -22,-10 -47,2 -68,-7 -5,-1 -11,-2 -16,-2 -11,-3 -22,-3 -33,-7 -4,-1 -8,-2 -12,-2 -5,-2 -9,-3 -14,-5 -6,-2 -12,-4 -18,-6 -13,-2 -25,-8 -36,-14 -2,0 -6,-1 -8,-1 -44,-22 -88,-45 -126,-77 -34,-25 -61,-57 -91,-87 -22,-29 -46,-56 -63,-88 -21,-29 -34,-62 -51,-93 0,-2 -1,-7 -1,-9 -3,-5 -5,-9 -8,-13 0,-2 -1,-7 -1,-9 -3,-5 -5,-9 -8,-14 0,-2 -1,-6 -1,-8 -2,-6 -4,-12 -7,-18 -2,-5 -3,-9 -5,-14 0,-4 -1,-8 -1,-13 -3,-6 -5,-12 -7,-18 -1,-4 -1,-8 -2,-12 -2,-7 -4,-15 -5,-22 -2,-6 -3,-12 -5,-18 -2,-9 -3,-18 -4,-27 -6,-13 0,-29 -7,-42 -1,-14 -1,-29 -1,-43 -3,-5 -4,-11 -4,-16 0,-984 0,-1968 0,-2952 0,-6 1,-11 4,-16 1,-16 0,-32 1,-47 6,-12 2,-25 7,-37 1,-9 2,-18 4,-27 1,-7 3,-15 5,-22 1,-4 2,-8 2,-12 2,-6 3,-12 5,-18 1,-6 3,-12 4,-18 2,-6 5,-12 7,-18 0,-2 1,-6 2,-8 2,-4 3,-9 5,-13 1,-5 3,-9 4,-14 3,-5 5,-9 8,-14 0,-2 1,-7 1,-9 3,-5 5,-9 8,-14 0,-2 1,-6 1,-9 11,-20 20,-40 31,-60 22,-40 49,-78 77,-115 11,-13 25,-23 34,-37 11,-17 30,-26 44,-41 37,-33 80,-58 124,-82 11,-3 22,-8 31,-14 2,0 6,-1 9,-1 5,-2 9,-5 14,-7 5,-2 9,-3 14,-5 4,0 8,-1 13,-2 6,-3 12,-5 18,-7 2,-1 6,-2 8,-2 11,-3 22,-3 33,-6 5,-1 11,-2 16,-2 16,-6 33,-2 49,-4z"/>
   <path fill="white" fill-rule="nonzero" d="M2914 578c84,-30 172,-44 260,-49 212,0 424,0 636,0 0,247 0,494 0,741 -105,0 -210,0 -315,0 -75,3 -151,13 -219,46 -59,27 -110,71 -144,127 -40,65 -56,142 -63,217 -1,118 -1,236 0,354 247,0 495,0 742,0 -12,48 -20,96 -30,144 -40,199 -79,398 -120,597 -197,0 -395,0 -592,0 0,524 0,1047 0,1571 -248,1 -496,0 -743,0 0,-524 0,-1047 0,-1571 -46,-1 -91,3 -137,2 -122,0 -244,0 -366,0 -30,-2 -61,-3 -91,-2 0,-247 0,-494 0,-740 57,-4 114,-2 171,-3 141,0 281,0 422,0 0,-168 0,-335 0,-503 -1,-35 8,-69 9,-104 12,-109 37,-218 77,-320 49,-124 122,-239 217,-331 82,-76 179,-137 285,-174z"/>
  </g>
 </g>
</svg>
