<svg xmlns="http://www.w3.org/2000/svg" shape-rendering="geometricPrecision" text-rendering="geometricPrecision" image-rendering="optimizeQuality" fill-rule="evenodd" clip-rule="evenodd" viewBox="0 0 77.33 170.474"><path fill="#007239" d="M.069.124c4.629-.154 9.288-.179 13.917.011.099 43.567.013 87.134.043 130.701-.017 13.193.034 26.385-.03 39.577-4.642.147-9.288-.029-13.934.041-.138-27.718.008-55.446-.065-83.167.039-29.053-.056-58.106.069-87.163zm17.322.432c2.516 1.83 4.676 4.005 7.094 5.934 17.369 14.832 34.768 29.635 52.151 44.453.27.292.966.64.579 1.076-2.284 2.427-4.972 4.55-7.287 6.955-13.341 12.467-26.61 24.986-39.934 37.457-1.795 1.951-4.075 3.529-5.801 5.528-2.388 1.965-4.324 4.293-6.811 6.179.164-10.125.022-20.254.069-30.382v-68.433c-.034-2.925.069-5.846-.06-8.767z"/></svg>