<svg xmlns="http://www.w3.org/2000/svg" shape-rendering="geometricPrecision" text-rendering="geometricPrecision" image-rendering="optimizeQuality" fill-rule="evenodd" clip-rule="evenodd" viewBox="0 0 800.809 1004.086"><g><path fill="#1A1A18" d="M658.567 7.707c11.209-3.36 22.972-4.774 34.658-4.51 7.947.554 15.925 1.372 23.624 3.516 3.774.823 7.409 2.179 11.064 3.412.616.274 1.243.512 1.874.755 2.154.746 4.215 1.74 6.255 2.745l.481-.202.414.828.673-.352.332.875.512-.306c.564.409 1.139.803 1.698 1.233l.559-.233.342.828.751-.254.176.554c1.134.508 2.128 1.279 3.288 1.735 4.193 2.386 8.076 5.255 11.944 8.123 1.32.487 1.853 1.967 3.101 2.568 1.683.73 2.501 2.537 4.111 3.365l-.078.259 1.3 1.082c1.801 1.398 3.22 3.226 4.975 4.686.243.574.533 1.154 1.051 1.537 1.962 1.668 3.127 4.049 5.105 5.711 2.987 4.478 6.456 8.719 8.946 13.528 1.693 2.605 3.148 5.411 4.173 8.341l.306-.052c.29.673.549 1.362.714 2.082.694.709 1.036 1.662.994 2.651l.503.17c.139.963.492 1.875.963 2.718.227.7.455 1.398.668 2.108 1.501 4.074 2.764 8.258 3.67 12.513 3.614 14.316 2.708 29.175 2.812 43.806v172.888c-.176 3.298.398 6.57.258 9.868-.005 176.025 0 352.05 0 528.076.125 11.26-.176 22.573-2.096 33.699-3.247 19.99-10.733 39.26-21.647 56.309-.352.492-.699.999-1.041 1.517-.6 1.103-1.356 2.118-2.128 3.117-1.791 2.884-3.991 5.483-5.974 8.232l-.275-.181c-.854 1.993-2.619 3.443-3.96 5.125-3.914 4.499-8.051 8.838-12.566 12.747-2.397 2.288-4.944 4.421-7.579 6.425-17.179 13.86-37.583 23.624-59.048 28.698-10.717 2.47-21.704 3.774-32.69 4.038-28.714.042-57.5-8.019-81.668-23.624-16.112-10.199-30.194-23.552-41.383-38.985-17.08-23.501-27.16-52.059-28.34-81.099-.384-5.156-.156-10.328-.218-15.49.005-177.812-.01-355.618.005-533.429 14.134.031 28.263-.016 42.392.02.021 179.888-.025 359.77.026 539.653.088 7.916 1.357 15.749 2.998 23.474.482 1.501.839 3.049 1.383 4.54 1.869 6.86 4.757 13.415 7.942 19.747 1.682 2.915 3.334 5.855 5.239 8.651 1.745 3.262 4.427 5.871 6.379 8.988l.46-.564c-.124.58-.274 1.185-.409 1.791.554.202 1.119.378 1.699.533.709 1.372 1.982 2.299 3.033 3.402 1.781 1.651 3.179 3.681 5.074 5.219 1.667 1.372 3.003 3.137 4.867 4.281l.45.653c3.749 2.676 7.409 5.488 11.318 7.937.476.29.896.662 1.258 1.113l.554-.238.145.647c3.314 1.434 6.317 3.582 9.692 4.944.829.306 1.647.678 2.418 1.144 1.222.528 2.459 1.031 3.676 1.6 1.382.471 2.78.917 4.126 1.496 3.122.917 6.198 2.004 9.377 2.719l-1.051.409c.538.331 1.071.16 1.506-.249 13.223 3.153 27.031 3.816 40.487 1.89 4.401-.544 8.683-1.704 13-2.62 7.73-2.376 15.351-5.208 22.413-9.169 1.942-.937 3.713-2.19 5.618-3.189 4.504-3.055 9.107-6.037 13.109-9.749 1.594-1.103 2.832-2.615 4.39-3.759.477-.585 1.031-1.092 1.621-1.543 1.408-1.988 3.246-3.666 5.089-5.245.487-.626.979-1.237 1.45-1.853l.186-.011c.539-1.025 1.181-1.998 2.056-2.759 2.091-2.92 4.39-5.68 6.28-8.739 1.32-2.599 3.173-4.893 4.364-7.57 5.245-9.795 8.88-20.435 10.826-31.375 2.175-11.084 1.564-22.418 1.646-33.642-.005-173.628.011-347.256-.01-520.884-.062-.896.466-1.678.523-2.553.01-65.763.01-131.531.005-197.299.026-6.715-1.103-13.373-2.951-19.814l-.533-1.501c-.378-.906-.73-1.823-1.005-2.765-1.076-3.049-2.671-5.876-4.131-8.75-4.551-8.014-10.557-15.226-17.846-20.89-1.393-1.077-2.713-2.299-4.37-2.956l.295-.363c-1.46-.274-2.583-1.315-3.836-2.03-1.921-1.045-3.852-2.065-5.794-3.08l-1.02-.533c-.921-.244-1.796-.616-2.63-1.067-2.449-.678-4.799-1.682-7.259-2.325-11.188-2.925-23.101-2.992-34.32-.196-1.73.559-3.526.885-5.229 1.527-4.846 1.786-9.599 3.919-13.969 6.684-.88.601-1.797 1.149-2.656 1.781-2.713 1.885-5.177 4.106-7.864 6.001l.222.611-.766-.446.093.513-.947 1.134c-.994.388-1.491 1.367-2.149 2.133-1.165 1.496-2.816 2.604-3.635 4.364l-.507-.429.021.683c-1.041 1.667-2.423 3.101-3.453 4.784-.549 1.056-1.186 2.061-1.792 3.086l-.569 1.076-.492-.02.103.911-.367.036c-.539 1.445-1.45 2.729-1.843 4.23l-.352-.186c-.068 1.015-.378 1.978-.886 2.853-3.272 8.055-4.892 16.795-4.789 25.482 0 192.07.062 384.14.036 576.215-.046 5.1-.217 10.355 1.6 15.217.192.476.383.968.575 1.465.559 1.273 1.082 2.568 1.817 3.764.715 1.289 1.724 2.392 2.573 3.603.855 1.522 2.232 2.646 3.547 3.759 1.248 1.372 2.92 2.268 4.395 3.376.694.3 1.357.668 2.014 1.061 1.207.507 2.418 1.015 3.64 1.496 5.41 1.667 11.292 1.983 16.775.471 1.579-.393 3.075-1.051 4.639-1.496 4.343-2.361 8.294-5.415 11.462-9.226 1.486-2.371 3.081-4.691 4.039-7.341.181-.513.362-1.02.554-1.517 1.719-5.4 1.232-11.111 1.299-16.687 0-125.474-.005-250.947.005-376.426 13.021.016 26.043.006 39.064.011.015 127.373 0 254.747.01 382.121.207 13.595-3.609 27.274-10.992 38.705-4.292 6.741-9.692 12.82-16.049 17.676-2.17 1.657-4.339 3.36-6.757 4.654-2.179 1.357-4.421 2.636-6.761 3.697-11.676 5.483-24.909 7.714-37.723 6.13-8.786-.999-17.313-3.816-25.115-7.952-17.246-9.34-30.319-26.079-34.896-45.188-1.491-6.125-2.133-12.447-2.06-18.737.005-126.328-.005-252.651.005-378.973.357-3.635.197-7.285.228-10.93v-177.05c.088-6.042-.244-12.099.305-18.126.404-7.611 1.647-15.195 3.718-22.532.119-.564.289-1.113.522-1.641.213-.947.435-1.885.606-2.837l.451-.13c.595-3.106 1.827-6.114 3.205-8.946l-.239-.528.658-.363c.109-.942.564-1.796 1.056-2.593.243-.72.476-1.455.916-2.087l.746-1.092-.202-.487c.357-.518.725-1.035 1.098-1.548.238-.554.471-1.113.693-1.672l.616-.28-.217-.456c1.098-1.092 1.486-2.671 2.495-3.836.368-.916.85-1.786 1.512-2.521.446-.751.953-1.465 1.336-2.247l.916-.782c.456-1.527 1.989-2.511 2.568-4.038l.498.512c-.42-1.439 1.159-2.107 1.775-3.148.409-.75 1-1.356 1.667-1.874 1.015-1.299 2.196-2.459 3.392-3.588l-.099-.445.357-.01c2.123-2.874 4.934-5.193 7.704-7.435 1.005-.777 1.611-2.211 2.977-2.392l-.093-.233c.709-.533 1.367-1.144 2.014-1.76 1.315-.71 2.516-1.605 3.645-2.579 2.848-1.993 5.819-3.883 8.781-5.752.688-.378 1.377-.761 2.097-1.092.492-.285.983-.58 1.475-.875 1.362-.461 2.439-1.528 3.868-1.828l.186-.549.823.223.223-.777.569.239c.596-.508 1.362-.72 2.025-1.114l.497.094c2.055-1.481 4.665-1.963 6.953-3.045 2.045-.45 3.961-1.356 5.995-1.858z"/><path fill="#007239" d="M.4.718c26.989-.893 54.153-1.042 81.142.064.576 253.117.076 506.234.25 759.351-.1 76.645.201 153.291-.174 229.936-27.065.851-54.153-.17-81.243.235-.801-161.033.051-322.129-.375-483.182.225-168.794-.326-337.588.4-506.404zm100.996 2.51c14.671 10.633 27.264 23.265 41.359 34.473 101.271 86.173 202.716 172.176 304.062 258.263 1.577 1.702 5.633 3.722 3.38 6.253-13.319 14.1-28.992 26.434-42.486 40.407-77.787 72.434-155.148 145.167-232.835 217.622-10.465 11.336-23.759 20.502-33.823 32.114-13.92 11.42-25.212 24.946-39.708 35.898.952-58.824.126-117.669.401-176.514v-397.583c-.2-16.992.401-33.963-.35-50.933z"/></g></svg>