<?xml version="1.0" encoding="UTF-8"?>
<!DOCTYPE svg PUBLIC "-//W3C//DTD SVG 1.1//EN" "http://www.w3.org/Graphics/SVG/1.1/DTD/svg11.dtd">
<!-- Creator: CorelDRAW 2018 (64-Bit) -->
<svg xmlns="http://www.w3.org/2000/svg" xml:space="preserve" width="100%" height="100%" version="1.1" shape-rendering="geometricPrecision" text-rendering="geometricPrecision" image-rendering="optimizeQuality" fill-rule="evenodd" clip-rule="evenodd"
viewBox="0 0 9700 3100"
 xmlns:xlink="http://www.w3.org/1999/xlink">
 <g id="Слой_x0020_1">
  <metadata id="CorelCorpID_0Corel-Layer"/>
  <path fill="black" fill-rule="nonzero" d="M0 0l9700 0 0 3100 -9700 0 0 -3100zm3695 616c-97,29 -164,129 -155,228 2,114 109,216 226,208 140,7 251,-140 217,-271 -22,-125 -166,-207 -288,-165zm434 24c-108,65 -137,221 -61,320 80,118 272,118 362,11 -16,-16 -32,-31 -48,-47 -48,54 -130,81 -198,47 -107,-43 -120,-207 -26,-270 63,-48 158,-37 211,21 16,-14 33,-28 50,-42 -71,-80 -199,-99 -290,-41zm1991 -25c-140,39 -200,220 -120,337 67,111 239,134 335,47 85,-69 101,-201 42,-292 -51,-84 -163,-123 -258,-92zm-2958 0c-2,86 4,173 -4,260 -6,49 -27,116 -91,104 0,50 0,100 0,151 22,0 43,0 65,0 1,-29 1,-57 2,-86 101,0 201,0 302,0 0,29 0,58 1,87 22,0 45,0 67,0 0,-51 0,-102 0,-153 -12,0 -36,-1 -48,-1 0,-120 0,-241 0,-361 -99,0 -197,0 -296,0zm1295 0c0,22 0,43 0,65 39,0 78,0 117,0 0,121 -1,241 1,362 22,0 45,-1 68,-1 0,-120 0,-240 0,-361 39,0 78,0 117,0 0,-22 0,-44 0,-65 -101,0 -202,0 -303,0zm321 0c44,104 99,205 140,310 1,44 -42,74 -86,57 -6,21 -12,42 -18,63 37,0 80,13 111,-13 29,-21 43,-56 58,-88 47,-110 103,-217 148,-329 -26,0 -52,-1 -77,-1 -32,83 -76,161 -97,247 -23,-86 -70,-163 -100,-246 -27,0 -53,-1 -80,-1zm397 0c0,141 0,283 0,424 23,2 46,3 69,5 2,-121 0,-242 1,-363 61,0 121,0 182,0 0,120 0,240 0,361 23,0 45,1 68,1 1,-142 0,-285 1,-427 -107,0 -213,0 -320,0zm401 0c1,142 -3,285 2,427 22,0 44,-1 66,-1 0,-61 0,-123 0,-184 64,0 129,0 193,0 0,62 0,123 1,184 23,0 47,0 70,0 1,-142 1,-285 0,-427 -18,0 -53,0 -71,0 0,60 0,120 0,180 -64,0 -129,0 -193,0 0,-60 0,-120 0,-180 -23,0 -46,0 -69,0zm1071 0c0,142 -1,285 1,427 63,0 125,4 188,-2 67,-6 126,-69 115,-136 -1,-37 -31,-62 -57,-84 53,-40 59,-124 9,-169 -69,-62 -171,-28 -255,-37zm-5856 178c-17,35 -31,72 -29,110 -1,440 -1,880 -1,1321 1,70 -10,145 30,208 70,46 145,3 207,-35 306,-170 613,-337 918,-508 109,-58 217,-119 325,-179 39,-21 83,-54 81,-103 -10,-42 -44,-73 -81,-93 -108,-60 -216,-119 -324,-179 -305,-170 -610,-338 -916,-508 -63,-36 -141,-87 -210,-35zm2279 1019c-55,168 8,363 146,474 170,145 456,150 618,-10 103,-95 131,-244 113,-377 -142,0 -285,0 -427,0 0,42 0,83 0,125 101,0 202,0 303,0 -12,59 -31,121 -79,162 -136,129 -383,103 -490,-49 -92,-121 -85,-303 17,-416 116,-138 347,-146 477,-23 30,-30 60,-59 90,-89 -85,-77 -198,-126 -315,-124 -202,-4 -396,134 -453,325zm2891 -294c0,286 0,573 0,859 44,0 87,0 131,0 0,-287 0,-573 0,-860 -44,0 -88,0 -131,0zm1029 860c44,0 88,0 132,0 0,-108 0,-217 0,-325 67,0 133,2 200,-1 87,-4 172,-47 222,-118 64,-89 62,-218 -5,-304 -54,-71 -144,-111 -234,-111 -105,-1 -211,0 -316,0 0,286 0,573 0,860zm672 -860c0,287 0,573 0,860 44,0 88,0 132,0 0,-286 0,-573 0,-859 -44,0 -88,0 -132,0zm-3454 304c-59,17 -113,52 -151,100 -90,112 -80,290 26,390 105,104 288,112 403,19 123,-93 144,-284 51,-404 -73,-99 -211,-139 -329,-104zm648 1c-70,21 -133,68 -169,131 -69,117 -45,281 62,369 111,97 297,95 405,-7 111,-98 124,-280 32,-395 -74,-97 -213,-135 -330,-99zm566 42c-113,79 -154,239 -94,362 50,110 176,186 299,164 47,-6 86,-35 122,-64 -4,50 0,105 -29,149 -43,69 -148,83 -215,39 -31,-19 -49,-50 -69,-79 -38,16 -76,31 -113,46 35,75 99,138 180,161 102,28 225,8 297,-72 54,-60 71,-143 71,-222 1,-174 0,-349 0,-523 -42,0 -84,-2 -125,2 0,11 0,34 1,45 -86,-86 -232,-83 -326,-10zm834 10c-123,103 -134,306 -27,424 78,90 214,119 326,79 60,-20 107,-64 147,-111 -34,-23 -68,-45 -102,-68 -40,49 -99,88 -166,79 -57,-1 -99,-42 -128,-86 133,-55 268,-108 401,-164 -25,-63 -58,-126 -114,-168 -97,-75 -245,-65 -337,14zm1623 65c38,16 77,32 115,48 65,-102 252,-72 265,53 -100,-40 -221,-43 -313,19 -74,45 -102,145 -64,222 66,135 288,155 372,27 -1,23 -1,46 -1,68 43,0 85,0 128,0 -1,-114 1,-227 -1,-341 0,-76 -41,-150 -108,-188 -128,-73 -323,-46 -393,92zm510 -113c78,174 156,347 233,521 -44,96 -89,193 -133,290 46,0 92,0 138,0 119,-270 239,-540 359,-810 -49,0 -98,0 -147,0 -51,125 -101,251 -151,376 -53,-125 -105,-250 -157,-376 -48,0 -95,0 -142,0zm-4664 -1150c101,-31 208,63 191,165 2,112 -145,186 -236,118 -109,-66 -82,-255 46,-283zm2425 0c93,-28 198,53 190,149 8,82 -64,159 -147,159 -72,4 -141,-50 -154,-120 -21,-79 28,-170 111,-189zm-2918 5c52,0 104,0 157,0 0,98 0,196 0,295 -64,0 -128,-1 -192,1 53,-90 30,-197 35,-296zm3488 110c0,-37 0,-74 0,-110 45,7 109,-19 139,26 26,30 -2,78 -38,83 -34,3 -67,2 -101,2zm0 65c39,0 79,-2 118,2 49,13 58,83 14,108 -42,15 -88,6 -132,9 1,-40 1,-80 1,-120zm403 782c77,3 155,-7 231,7 98,26 141,158 71,233 -74,88 -202,43 -302,54 0,-98 0,-195 0,-293zm-2879 296c113,-43 234,65 220,179 1,113 -130,205 -236,151 -137,-59 -128,-285 16,-329zm661 -3c99,-31 205,51 210,150 15,97 -65,200 -168,197 -103,1 -180,-102 -165,-198 6,-68 55,-131 122,-149zm647 1c112,-40 219,73 205,181 4,108 -118,204 -222,152 -141,-58 -130,-289 17,-332zm822 9c60,-36 142,-17 181,40 -90,38 -180,75 -271,111 4,-61 32,-123 90,-151zm1660 200c67,-42 155,-30 224,1 -15,98 -134,171 -226,118 -47,-24 -41,-94 2,-118z"/>
  <path fill="#01EE76" fill-rule="nonzero" d="M781 779c69,-53 148,-2 211,35 306,173 613,344 918,518 -95,93 -188,188 -283,281 -286,-274 -562,-558 -846,-834z"/>
  <path fill="#00D3FF" fill-rule="nonzero" d="M752 892c-2,-40 12,-77 29,-113 284,276 560,560 846,834l-2 2c-282,278 -560,559 -844,835 -40,-64 -29,-141 -30,-212 0,-449 0,-898 1,-1347z"/>
  <path fill="#FFCB00" fill-rule="nonzero" d="M1910 1332c108,61 217,122 325,182 37,20 72,53 81,95 2,49 -42,84 -82,105 -109,61 -217,123 -326,182 -96,-93 -186,-191 -284,-281l2 -2c95,-93 188,-188 283,-281z"/>
  <path fill="#F4334A" fill-rule="nonzero" d="M781 2451c284,-276 561,-558 844,-835 98,90 188,188 284,281 -306,174 -614,345 -920,518 -61,39 -137,83 -207,36z"/>
 </g>
</svg>
