<?xml version="1.0" encoding="UTF-8"?>
<!DOCTYPE svg PUBLIC "-//W3C//DTD SVG 1.1//EN" "http://www.w3.org/Graphics/SVG/1.1/DTD/svg11.dtd">
<!-- Creator: CorelDRAW 2018 (64-Bit) -->
<svg xmlns="http://www.w3.org/2000/svg" xml:space="preserve" width="100%" height="100%" version="1.1" shape-rendering="geometricPrecision" text-rendering="geometricPrecision" image-rendering="optimizeQuality" fill-rule="evenodd" clip-rule="evenodd"
viewBox="0 0 4604 1168"
 xmlns:xlink="http://www.w3.org/1999/xlink">
 <g id="Слой_x0020_1">
  <metadata id="CorelCorpID_0Corel-Layer"/>
  <rect fill="#FEFEFE" stroke="#FEFEFE" stroke-width="20" stroke-miterlimit="22.9256" x="239" y="908" width="75" height="45"/>
  <path fill="#E31E24" fill-rule="nonzero" d="M532 796l32 0 0 40 -7 0 0 -35 -18 0 0 20c0,5 0,8 0,9 0,1 -1,3 -3,4 -1,1 -3,2 -6,2 -2,0 -3,0 -6,0l0 -6 3 0c1,0 2,0 3,0 1,0 1,-1 1,-1 0,-1 0,-3 0,-6l0 -27z"/>
  <polygon id="1" fill="#E31E24" fill-rule="nonzero" points="575,796 582,796 582,826 601,796 608,796 608,836 601,836 601,805 582,836 575,836 "/>
  <polygon id="2" fill="#E31E24" fill-rule="nonzero" points="618,796 625,796 625,812 644,812 644,796 651,796 651,836 644,836 644,818 625,818 625,836 618,836 "/>
  <polygon id="3" fill="#E31E24" fill-rule="nonzero" points="661,796 668,796 668,826 687,796 695,796 695,836 688,836 688,805 669,836 661,836 "/>
  <polygon id="4" fill="#E31E24" fill-rule="nonzero" points="705,796 712,796 712,826 731,796 738,796 738,836 731,836 731,805 712,836 705,836 "/>
  <polygon id="5" fill="#E31E24" fill-rule="nonzero" points="770,796 777,796 777,812 796,812 796,796 803,796 803,836 796,836 796,818 777,818 777,836 770,836 "/>
  <path id="6" fill="#E31E24" fill-rule="nonzero" d="M841 823l7 1c-1,4 -3,7 -6,10 -3,2 -7,3 -12,3 -6,0 -11,-2 -14,-5 -3,-4 -5,-9 -5,-15 0,-7 2,-12 5,-16 4,-4 8,-6 14,-6 5,0 10,2 13,6 3,4 5,9 5,16 0,0 0,1 0,2l-30 0c0,4 2,8 4,10 2,2 5,4 8,4 3,0 5,-1 6,-2 2,-1 3,-3 4,-6zm-22 -11l23 0c0,-3 -1,-6 -3,-8 -2,-3 -5,-4 -8,-4 -3,0 -6,1 -8,3 -2,2 -3,5 -4,8z"/>
  <path id="7" fill="#E31E24" fill-rule="nonzero" d="M884 796l28 0 0 35 4 0 0 17 -6 0 0 -11 -32 0 0 11 -6 0 0 -17 4 0c5,-7 7,-18 7,-35zm6 6c-1,13 -3,23 -6,29l22 0 0 -29 -16 0z"/>
  <path id="8" fill="#E31E24" fill-rule="nonzero" d="M921 816c0,-7 2,-13 6,-17 3,-3 8,-4 13,-4 6,0 10,2 14,5 4,4 5,9 5,15 0,5 -1,9 -2,12 -2,3 -4,5 -7,7 -3,2 -6,2 -10,2 -6,0 -10,-2 -14,-5 -4,-4 -5,-9 -5,-16zm7 0c0,5 1,9 3,12 2,3 5,4 9,4 3,0 6,-1 9,-4 2,-3 3,-7 3,-12 0,-5 -1,-9 -3,-11 -2,-3 -5,-4 -8,-4 -3,0 -6,1 -9,4 -2,3 -3,6 -3,12z"/>
  <path id="9" fill="#E31E24" fill-rule="nonzero" d="M967 796l7 0 0 17c2,0 4,0 5,-1 1,-1 2,-3 4,-7 1,-3 2,-5 3,-6 1,-1 2,-2 3,-2 1,0 3,-1 5,-1l1 0 0 6 -2 0c-2,0 -3,0 -3,1 -1,1 -1,2 -2,5 -1,3 -2,4 -3,6 -1,1 -2,2 -4,3 3,1 6,4 9,8l8 13 -8 0 -7 -13c-1,-3 -3,-4 -4,-5 -1,-1 -2,-1 -4,-1l0 19 -7 0 0 -40z"/>
  <path id="10" fill="#E31E24" fill-rule="nonzero" d="M999 816c0,-7 2,-13 6,-17 3,-3 8,-4 13,-4 6,0 10,2 14,5 4,4 5,9 5,15 0,5 -1,9 -2,12 -2,3 -4,5 -7,7 -3,2 -6,2 -10,2 -6,0 -10,-2 -14,-5 -4,-4 -5,-9 -5,-16zm7 0c0,5 1,9 3,12 2,3 5,4 9,4 3,0 6,-1 9,-4 2,-3 3,-7 3,-12 0,-5 -1,-9 -3,-11 -2,-3 -5,-4 -8,-4 -3,0 -6,1 -9,4 -2,3 -3,6 -3,12z"/>
  <polygon id="11" fill="#E31E24" fill-rule="nonzero" points="1045,796 1052,796 1052,812 1071,812 1071,796 1078,796 1078,836 1071,836 1071,818 1052,818 1052,836 1045,836 "/>
  <polygon id="12" fill="#E31E24" fill-rule="nonzero" points="1089,796 1095,796 1095,830 1114,830 1114,796 1121,796 1121,830 1126,830 1126,848 1120,848 1120,836 1089,836 "/>
  <path id="13" fill="#E31E24" fill-rule="nonzero" d="M1160 831c-3,2 -5,4 -7,5 -2,1 -5,1 -8,1 -4,0 -8,-1 -10,-3 -2,-2 -4,-5 -4,-8 0,-2 0,-4 1,-5 1,-2 2,-3 4,-4 1,-1 3,-2 5,-2 1,0 3,-1 6,-1 6,-1 10,-1 12,-2 0,-1 0,-2 0,-2 0,-3 -1,-5 -2,-6 -2,-2 -4,-2 -8,-2 -3,0 -6,1 -7,2 -2,1 -3,3 -3,6l-7 -1c1,-3 2,-5 3,-7 1,-2 3,-3 6,-4 3,-1 6,-1 9,-1 3,0 6,0 8,1 2,1 4,2 5,3 1,1 2,3 2,5 0,1 0,3 0,6l0 9c0,6 0,10 0,12 0,2 1,3 2,5l-7 0c-1,-1 -1,-3 -1,-5zm-1 -15c-3,1 -6,2 -11,3 -3,0 -5,1 -6,1 -1,1 -2,1 -3,2 -1,1 -1,2 -1,3 0,2 1,3 2,5 1,1 3,2 6,2 3,0 5,-1 7,-2 2,-1 4,-3 5,-5 1,-2 1,-4 1,-7l0 -2z"/>
  <path id="14" fill="#E31E24" fill-rule="nonzero" d="M1211 852c-4,-5 -7,-10 -10,-17 -3,-6 -4,-13 -4,-20 0,-6 1,-12 3,-17 2,-6 6,-13 11,-19l5 0c-3,5 -5,9 -6,11 -2,3 -3,7 -4,11 -1,5 -2,10 -2,14 0,12 4,24 11,37l-5 0z"/>
  <path id="15" fill="#E31E24" fill-rule="nonzero" d="M1224 796l7 0 0 17c2,0 4,0 5,-1 1,-1 2,-3 4,-7 1,-3 2,-5 3,-6 1,-1 2,-2 3,-2 1,0 3,-1 5,-1l1 0 0 6 -2 0c-2,0 -3,0 -3,1 -1,1 -1,2 -2,5 -1,3 -2,4 -3,6 -1,1 -2,2 -4,3 3,1 6,4 9,8l8 13 -8 0 -7 -13c-1,-3 -3,-4 -4,-5 -1,-1 -2,-1 -4,-1l0 19 -7 0 0 -40z"/>
  <path id="16" fill="#E31E24" fill-rule="nonzero" d="M1286 831c-3,2 -5,4 -7,5 -2,1 -5,1 -8,1 -4,0 -8,-1 -10,-3 -2,-2 -4,-5 -4,-8 0,-2 0,-4 1,-5 1,-2 2,-3 4,-4 1,-1 3,-2 5,-2 1,0 3,-1 6,-1 6,-1 10,-1 12,-2 0,-1 0,-2 0,-2 0,-3 -1,-5 -2,-6 -2,-2 -4,-2 -8,-2 -3,0 -6,1 -7,2 -2,1 -3,3 -3,6l-7 -1c1,-3 2,-5 3,-7 1,-2 3,-3 6,-4 3,-1 6,-1 9,-1 3,0 6,0 8,1 2,1 4,2 5,3 1,1 2,3 2,5 0,1 0,3 0,6l0 9c0,6 0,10 0,12 0,2 1,3 2,5l-7 0c-1,-1 -1,-3 -1,-5zm-1 -15c-3,1 -6,2 -11,3 -3,0 -5,1 -6,1 -1,1 -2,1 -3,2 -1,1 -1,2 -1,3 0,2 1,3 2,5 1,1 3,2 6,2 3,0 5,-1 7,-2 2,-1 4,-3 5,-5 1,-2 1,-4 1,-7l0 -2z"/>
  <path id="17" fill="#E31E24" fill-rule="nonzero" d="M1303 796l7 0 0 17c2,0 4,0 5,-1 1,-1 2,-3 4,-7 1,-3 2,-5 3,-6 1,-1 2,-2 3,-2 1,0 3,-1 5,-1l1 0 0 6 -2 0c-2,0 -3,0 -3,1 -1,1 -1,2 -2,5 -1,3 -2,4 -3,6 -1,1 -2,2 -4,3 3,1 6,4 9,8l8 13 -8 0 -7 -13c-1,-3 -3,-4 -4,-5 -1,-1 -2,-1 -4,-1l0 19 -7 0 0 -40z"/>
  <path id="18" fill="#E31E24" fill-rule="nonzero" d="M1359 796l16 0c4,0 7,0 9,1 2,1 4,2 5,4 1,2 2,4 2,6 0,2 0,4 -1,5 -1,1 -2,3 -4,4 2,1 3,2 5,4 1,2 2,4 2,6 0,4 -2,7 -4,9 -2,2 -6,3 -11,3l-18 0 0 -40zm7 17l7 0c3,0 5,0 6,0 1,0 2,-1 3,-2 1,-1 1,-2 1,-3 0,-2 -1,-4 -2,-4 -2,-1 -4,-1 -8,-1l-8 0 0 11zm0 18l9 0c4,0 7,0 8,-1 1,-1 2,-2 2,-5 0,-1 0,-2 -1,-4 -1,-1 -2,-2 -3,-2 -1,0 -4,0 -6,0l-8 0 0 12z"/>
  <path id="19" fill="#E31E24" fill-rule="nonzero" d="M1553 852l-5 0c8,-12 11,-24 11,-37 0,-5 -1,-10 -2,-14 -1,-4 -2,-7 -4,-11 -1,-2 -3,-6 -6,-11l5 0c5,6 8,13 11,19 2,6 3,11 3,17 0,7 -1,13 -4,20 -3,6 -6,12 -10,17z"/>
  <path id="20" fill="#E31E24" fill-rule="nonzero" d="M1584 818l0 -5c3,0 5,0 6,0 1,0 2,-1 3,-2 1,-1 1,-2 1,-4 0,-2 -1,-3 -2,-4 -1,-1 -3,-2 -5,-2 -4,0 -7,2 -8,7l-7 -1c2,-8 7,-11 15,-11 4,0 8,1 10,4 2,2 4,5 4,8 0,3 -2,6 -5,8 2,1 4,2 5,4 1,2 2,4 2,6 0,4 -1,7 -4,9 -3,2 -6,3 -11,3 -9,0 -15,-4 -16,-12l6 -1c1,3 2,5 4,6 2,1 4,2 6,2 2,0 4,-1 6,-2 2,-1 2,-3 2,-5 0,-2 0,-3 -1,-4 -1,-1 -2,-2 -3,-2 -1,0 -3,0 -6,0 0,0 -1,0 -2,0z"/>
  <path id="21" fill="#E31E24" fill-rule="nonzero" d="M1637 831c-3,2 -5,4 -7,5 -2,1 -5,1 -8,1 -4,0 -8,-1 -10,-3 -2,-2 -4,-5 -4,-8 0,-2 0,-4 1,-5 1,-2 2,-3 4,-4 1,-1 3,-2 5,-2 1,0 3,-1 6,-1 6,-1 10,-1 12,-2 0,-1 0,-2 0,-2 0,-3 -1,-5 -2,-6 -2,-2 -4,-2 -8,-2 -3,0 -6,1 -7,2 -2,1 -3,3 -3,6l-7 -1c1,-3 2,-5 3,-7 1,-2 3,-3 6,-4 3,-1 6,-1 9,-1 3,0 6,0 8,1 2,1 4,2 5,3 1,1 2,3 2,5 0,1 0,3 0,6l0 9c0,6 0,10 0,12 0,2 1,3 2,5l-7 0c-1,-1 -1,-3 -1,-5zm-1 -15c-3,1 -6,2 -11,3 -3,0 -5,1 -6,1 -1,1 -2,1 -3,2 -1,1 -1,2 -1,3 0,2 1,3 2,5 1,1 3,2 6,2 3,0 5,-1 7,-2 2,-1 4,-3 5,-5 1,-2 1,-4 1,-7l0 -2z"/>
  <path id="22" fill="#E31E24" fill-rule="nonzero" d="M1424 836l0 -56 11 0 13 40c1,4 2,6 3,8 1,-2 2,-5 3,-9l13 -39 10 0 0 56 -7 0 0 -47 -16 47 -7 0 -16 -48 0 48 -7 0z"/>
  <polygon id="23" fill="#E31E24" fill-rule="nonzero" points="1492,780 1536,780 1536,836 1529,836 1529,787 1500,787 1500,836 1492,836 "/>
  <polygon fill="#D7B56D" points="0,0 3785,0 4604,1168 0,1168 "/>
  <polygon fill="#FEFEFE" fill-rule="nonzero" points="567,308 671,308 671,675 895,308 1006,308 1006,860 902,860 902,498 678,860 567,860 "/>
  <polygon id="1" fill="#FEFEFE" fill-rule="nonzero" points="1120,860 1120,308 1232,308 1232,525 1450,525 1450,308 1561,308 1561,860 1450,860 1450,619 1232,619 1232,860 "/>
  <path id="2" fill="#FEFEFE" fill-rule="nonzero" d="M2005 795l0 65 -110 0 0 -65c-88,-3 -151,-25 -187,-65 -36,-40 -55,-91 -55,-151 0,-64 19,-115 57,-153 38,-39 100,-60 185,-63l0 -55 110 0 0 55c88,3 150,25 187,65 37,40 55,91 55,152 0,61 -18,111 -55,151 -37,40 -99,62 -187,65zm0 -93c29,0 54,-5 76,-15 21,-10 36,-23 45,-39 9,-16 13,-41 13,-73 0,-80 -45,-120 -134,-120l0 246zm-110 0l0 -246c-47,0 -81,10 -102,31 -21,21 -31,53 -31,95 0,80 45,120 134,120z"/>
  <path id="3" fill="#FEFEFE" fill-rule="nonzero" d="M2313 587c0,-56 8,-104 25,-142 12,-28 30,-54 51,-76 22,-22 46,-39 71,-50 34,-15 74,-22 119,-22 82,0 147,25 196,76 49,51 73,121 73,211 0,89 -24,159 -73,210 -49,51 -113,76 -195,76 -82,0 -148,-25 -196,-75 -49,-50 -73,-119 -73,-208zm115 -4c0,63 15,110 43,143 29,32 66,49 110,49 45,0 81,-16 110,-48 29,-32 43,-80 43,-144 0,-63 -14,-111 -42,-142 -28,-31 -65,-47 -111,-47 -46,0 -83,16 -111,47 -28,32 -42,79 -42,143z"/>
 </g>
</svg>
