<?xml version="1.0" encoding="UTF-8"?>
<!DOCTYPE svg PUBLIC "-//W3C//DTD SVG 1.1//EN" "http://www.w3.org/Graphics/SVG/1.1/DTD/svg11.dtd">
<!-- Creator: CorelDRAW 2018 (64-Bit) -->
<svg xmlns="http://www.w3.org/2000/svg" xml:space="preserve" width="100%" height="100%" version="1.1" shape-rendering="geometricPrecision" text-rendering="geometricPrecision" image-rendering="optimizeQuality" fill-rule="evenodd" clip-rule="evenodd"
viewBox="0 0 10367 1905"
 xmlns:xlink="http://www.w3.org/1999/xlink">
 <g id="Слой_x0020_1">
  <metadata id="CorelCorpID_0Corel-Layer"/>
  <rect fill="#FFFCE4" width="10367" height="1905"/>
  <polygon fill="#AF9778" points="0,0 6948,0 7674,1848 0,1848 "/>
  <polygon fill="#FEFEFE" fill-rule="nonzero" points="1485,504 1586,504 1586,1169 2033,504 2143,504 2143,1344 2043,1344 2043,680 1597,1344 1485,1344 "/>
  <polygon id="1" fill="#FEFEFE" fill-rule="nonzero" points="2331,1344 2331,504 2442,504 2442,850 2877,850 2877,504 2988,504 2988,1344 2877,1344 2877,948 2442,948 2442,1344 "/>
  <path id="2" fill="#FEFEFE" fill-rule="nonzero" d="M3478 603l0 -107 104 0 0 107c107,6 191,38 253,97 62,59 93,132 93,219 0,85 -30,158 -90,218 -60,60 -145,93 -256,99l0 108 -104 0 0 -108c-99,-4 -182,-34 -248,-91 -66,-57 -99,-132 -99,-225 0,-94 33,-169 99,-225 66,-56 149,-86 248,-91zm104 95l0 442c72,-4 128,-24 169,-63 41,-38 62,-91 62,-158 0,-66 -20,-118 -61,-157 -40,-39 -97,-60 -171,-64zm-104 1c-69,3 -125,23 -168,61 -43,38 -64,91 -64,159 0,67 21,120 63,158 42,38 99,59 169,62l0 -440z"/>
  <path id="3" fill="#FEFEFE" fill-rule="nonzero" d="M4032 935c0,-139 38,-248 112,-327 75,-79 172,-118 290,-118 78,0 147,19 210,56 62,37 110,89 142,155 33,66 49,141 49,225 0,85 -17,161 -52,228 -34,67 -83,118 -146,153 -63,35 -131,52 -204,52 -79,0 -150,-19 -212,-57 -62,-38 -110,-90 -142,-156 -32,-66 -48,-136 -48,-209zm115 2c0,101 27,181 82,239 54,58 123,87 205,87 84,0 152,-29 207,-88 54,-59 81,-142 81,-250 0,-68 -12,-128 -35,-179 -23,-51 -57,-90 -101,-118 -45,-28 -94,-42 -150,-42 -79,0 -146,27 -203,81 -57,54 -85,144 -85,270z"/>
  <g id="clip.pdf">
   <path fill="#1A1A18" fill-rule="nonzero" d="M9035 243c20,-5 42,-7 63,-6 15,1 29,2 43,5 7,1 14,3 20,5 1,0 2,1 3,1 4,1 8,2 11,4l1 0c0,0 1,1 1,1l1 -1c0,0 0,1 1,1l1 0c1,1 2,1 3,2l1 0c0,0 0,1 1,1l1 0 0 1c2,1 4,2 6,2 8,3 15,8 22,12 2,1 3,3 6,4 3,1 5,4 8,5l0 0c1,1 2,1 2,2 3,2 6,5 9,7 0,1 1,2 2,2 4,2 6,6 9,8 5,6 12,12 16,19 3,4 6,8 8,12l1 0c1,1 1,2 1,3 1,1 2,2 2,4 0,0 1,0 1,0 0,1 1,3 2,4 0,1 1,2 1,3 3,6 5,12 7,18 7,21 5,42 5,63 0,83 0,165 0,247 0,5 1,9 0,14 0,252 0,504 0,756 0,16 0,32 -4,48 -6,29 -20,56 -40,81 -1,1 -1,1 -2,2 -1,2 -2,3 -4,4 -3,4 -7,8 -11,12l-1 0c-2,3 -5,5 -7,7 -7,6 -15,13 -23,18 -4,3 -9,6 -14,9 -31,20 -69,34 -108,41 -20,4 -40,5 -60,6 -52,0 -105,-11 -149,-34 -29,-15 -55,-34 -76,-56 -31,-34 -50,-75 -52,-116 -1,-7 0,-15 0,-22 0,-255 0,-509 0,-764 26,0 52,0 77,0 0,258 0,515 0,773 0,11 2,23 5,34 1,2 2,4 3,7 3,10 9,19 15,28 3,4 6,8 10,12 3,5 8,8 12,13l1 -1c0,1 -1,2 -1,3 1,0 2,1 3,1 1,2 4,3 6,5 3,2 6,5 9,7 3,2 5,4 9,6 0,0 1,1 1,1 7,4 14,8 21,11 1,0 2,1 2,2 0,0 1,0 1,0l0 1c6,2 12,5 18,7 2,0 3,1 4,2 2,1 4,1 7,2 3,1 5,1 8,2 6,1 11,3 17,4l-2 1c1,0 2,0 3,0 24,5 49,5 74,3 8,-1 16,-2 24,-4 14,-3 28,-7 41,-13 4,-1 7,-3 10,-5 8,-4 17,-9 24,-14 3,-2 5,-4 8,-5 1,-1 2,-2 3,-2 3,-3 6,-5 9,-8 1,-1 2,-2 3,-3l0 0c1,-1 2,-3 4,-4 4,-4 8,-8 11,-13 2,-4 6,-7 8,-11 10,-14 16,-29 20,-45 4,-16 3,-32 3,-48 0,-249 0,-497 0,-746 0,-1 1,-2 1,-4 0,-94 0,-188 0,-282 0,-10 -2,-19 -5,-28 0,-1 -1,-1 -1,-2 -1,-1 -1,-3 -2,-4 -2,-4 -5,-8 -8,-13 -8,-11 -19,-22 -33,-30 -3,-2 -5,-3 -8,-4l1 -1c-3,0 -5,-2 -7,-3 -4,-2 -7,-3 -11,-4 0,0 -1,-1 -2,-1 -2,0 -3,-1 -5,-2 -4,-1 -9,-2 -13,-3 -20,-4 -42,-4 -63,0 -3,1 -6,1 -10,2 -9,3 -18,6 -26,10 -2,1 -3,2 -5,3 -5,3 -9,6 -14,9l0 1 -1 -1 0 1c-1,1 -1,1 -2,2 -2,1 -3,2 -4,3 -2,2 -5,4 -7,6l-1 -1 0 1c-2,2 -4,4 -6,7 -1,2 -2,3 -3,4 0,0 -1,1 -1,2l-1 0c0,0 0,1 0,1l-1 0c-1,2 -3,4 -3,6l-1 0c0,1 -1,3 -2,4 -6,12 -9,24 -9,36 0,275 0,550 0,825 0,7 0,15 3,22 0,1 1,1 1,2 1,2 2,4 3,5 1,2 3,3 5,5 2,2 4,4 6,5 2,2 5,3 8,5 1,0 2,1 4,2 2,1 4,1 7,2 10,2 21,3 31,1 3,-1 6,-2 8,-2 8,-3 15,-8 21,-13 3,-3 6,-7 7,-11 0,-1 1,-1 1,-2 3,-8 2,-16 2,-24 0,-180 0,-359 0,-539 24,0 48,0 71,0 0,182 0,365 0,547 0,19 -7,39 -20,55 -8,10 -18,18 -29,25 -4,2 -8,5 -12,7 -4,2 -8,4 -12,5 -21,8 -46,11 -69,9 -16,-1 -32,-5 -46,-11 -32,-13 -55,-37 -64,-65 -3,-9 -4,-18 -4,-27 0,-181 0,-362 0,-543 1,-5 0,-10 0,-16 0,-84 0,-169 0,-253 0,-9 0,-17 1,-26 1,-11 3,-22 7,-32 0,-1 1,-2 1,-2 0,-1 1,-3 1,-4 0,0 1,0 1,0 1,-4 3,-9 6,-13l0 -1c0,0 1,0 1,-1 0,-1 1,-3 2,-4 0,-1 1,-2 2,-3 0,0 1,-1 1,-2 0,0 0,-1 0,-1 1,-1 1,-1 2,-2 0,-1 1,-2 1,-2 0,0 1,0 1,0l0 -1c2,-2 3,-4 5,-5 1,-1 2,-3 3,-4 1,-1 2,-2 2,-3 1,0 1,-1 2,-1 1,-2 4,-4 5,-6l1 1c-1,-2 2,-3 3,-5 1,-1 2,-2 3,-3 2,-2 4,-4 6,-5l0 -1 1 0c4,-4 9,-7 14,-11 2,-1 3,-3 5,-3l0 0c1,-1 3,-2 4,-3 2,-1 5,-2 7,-4 5,-3 11,-6 16,-8 1,-1 3,-1 4,-2 1,0 2,-1 3,-1 2,-1 4,-2 7,-3l0 -1c0,0 1,0 2,0l0 -1 1 0c1,-1 2,-1 4,-2l1 0c4,-2 9,-3 13,-4 4,-1 7,-2 11,-3z"/>
  </g>
 </g>
</svg>
