<svg xmlns="http://www.w3.org/2000/svg" shape-rendering="geometricPrecision" text-rendering="geometricPrecision" image-rendering="optimizeQuality" fill-rule="evenodd" clip-rule="evenodd" viewBox="0 0 503.731 502.256"><g><path fill="#fff" d="M58.346 116.702c1.786-.015 3.562-.23 5.338-.34 124.655-.015 249.314 0 373.968-.005 1.551.009 3.117-.11 4.668.053.718.354.555 1.197.613 1.857-.024 86.82 0 173.64-.015 260.46-.047 2.111.245 4.271-.363 6.329-128.068-.081-256.136 0-384.204-.043-.005-89.434.004-178.873-.005-268.311zm25.05 13.545c51.026 45.959 101.926 92.072 152.913 138.079 2.935 2.073 6.512 2.988 9.705 4.611 2.222 1.259 4.831.694 7.259.819 2.207.215 4.012-1.24 5.879-2.15 2.208-1.293 4.683-2.188 6.56-3.974 50.661-45.792 101.356-91.546 151.998-137.352l-334.314-.033zm-11.223 8.853c.034 75.443 0 150.887.015 226.331 15.259-12.449 30.36-25.08 45.591-37.557 28.411-23.557 56.952-46.96 85.35-70.536-43.7-39.357-87.27-78.862-130.956-118.238zm226.858 117.491c43.355 35.742 86.657 71.546 130.007 107.298.024-74.955.01-149.911.005-224.866-43.269 39.266-86.724 78.321-130.012 117.568zm-10.672 9.562c-5.205 4.735-10.414 9.48-15.676 14.148-3.763 2.226-7.733 4.103-11.549 6.239-1.11.574-2.221 1.326-3.519 1.307-3.035.057-6.071-.034-9.106.019-1.623-.01-3.323.153-4.836-.551-4.324-1.872-8.623-3.801-12.951-5.649-2.198-.853-3.668-2.773-5.411-4.252-3.926-3.433-7.68-7.048-11.63-10.443-42.024 34.761-84.162 69.383-126.129 104.205 109.371.005 218.742.038 328.113-.014-30.915-25.51-61.817-51.03-92.718-76.545-11.553-9.456-22.963-19.099-34.588-28.464z"/><path fill="#808285" d="M48.401 0h407.277c7.513 1.638 15.015 4.017 21.398 8.427 3.61 2.38 7 5.07 10.05 8.14 6.731 6.736 11.764 15.129 14.359 24.303 1.225 3.979 1.982 8.111 2.207 12.267v391.659c.431 10.591-2.748 21.129-8.063 30.231-5.635 9.126-13.809 16.676-23.27 21.718-5.094 2.557-10.562 4.213-16.092 5.511h-408.249c-.852-.22-1.709-.426-2.561-.618-3.773-.833-7.479-1.987-10.95-3.682-3.275-1.652-6.67-3.122-9.634-5.319-7.766-5.593-14.349-12.98-18.5-21.642-1.614-2.877-2.801-5.97-3.687-9.14-1.226-3.983-2.159-8.101-2.193-12.286-.01-1.178-.192-2.346-.493-3.476v-389.868c.766-2.734.301-5.611.948-8.365 1.733-11.62 7.507-22.383 15.46-30.939 7.082-7.005 15.753-12.607 25.443-15.188 2.15-.703 4.338-1.264 6.55-1.733zm9.945 116.702c.009 89.438 0 178.877.005 268.311 128.068.043 256.136-.038 384.204.043.608-2.058.316-4.218.363-6.329.015-86.82-.009-173.64.015-260.46-.058-.66.105-1.503-.613-1.857-1.551-.163-3.117-.044-4.668-.053-124.654.005-249.313-.01-373.968.005-1.776.11-3.552.325-5.338.34zm25.05 13.545l334.314.033c-50.642 45.806-101.337 91.56-151.998 137.352-1.877 1.786-4.352 2.681-6.56 3.974-1.867.91-3.672 2.365-5.879 2.15-2.428-.125-5.037.44-7.259-.819-3.193-1.623-6.77-2.538-9.705-4.611-50.987-46.007-101.887-92.12-152.913-138.079zm-11.223 8.853c43.686 39.376 87.256 78.881 130.956 118.238-28.398 23.576-56.939 46.979-85.35 70.536-15.231 12.477-30.332 25.108-45.591 37.557-.015-75.444.019-150.888-.015-226.331zm226.858 117.491c43.288-39.247 86.743-78.302 130.012-117.568.005 74.955.019 149.911-.005 224.866-43.35-35.752-86.652-71.556-130.007-107.298zm-10.672 9.562c11.625 9.365 23.035 19.008 34.588 28.464 30.901 25.515 61.803 51.035 92.718 76.545-109.371.052-218.742.019-328.113.014 41.967-34.822 84.105-69.444 126.129-104.205 3.95 3.395 7.704 7.01 11.63 10.443 1.743 1.479 3.213 3.399 5.411 4.252 4.328 1.848 8.627 3.777 12.951 5.649 1.513.704 3.213.541 4.836.551 3.035-.053 6.071.038 9.106-.019 1.298.019 2.409-.733 3.519-1.307 3.816-2.136 7.786-4.013 11.549-6.239 5.262-4.668 10.471-9.413 15.676-14.148z"/></g></svg>