<svg xmlns="http://www.w3.org/2000/svg" shape-rendering="geometricPrecision" text-rendering="geometricPrecision" image-rendering="optimizeQuality" fill-rule="evenodd" clip-rule="evenodd" viewBox="0 0 169.694 277.565"><path fill="#EA1022" d="M.147 81.676c.265-42.811 38.426-81.37 81.348-81.525 22.879-1.44 46.024 7.53 62.28 23.631 17.364 16.456 27.22 40.685 25.78 64.627-.575 33.023-17.718 62.834-36.411 89.012-23.742 31.627-47.307 63.409-70.939 95.103-2.016 2.48-4.296 5.935-8.151 4.828-1.129-6.822 2.127-13.045 4.164-19.313 7.885-23.321 15.925-46.599 23.854-69.921 1.948-5.492 3.255-11.206 4.008-17.009-25.514-.111-51.05-11.451-66.974-31.583-13.289-16.012-20.222-37.075-18.959-57.85zm72.711-60.042c-29.966 5.116-53.575 33.974-52.379 64.406-.864 33.664 29.323 64.959 63.276 63.829 33.996 2.303 65.18-27.906 65.535-61.637 1.506-23.366-11.229-46.732-31.317-58.581-13.377-8.106-29.789-10.963-45.115-8.017zm.775 34.595c16.013-6.844 36.035 2.967 40.885 19.578 6.821 18.582-8.527 41.128-28.504 40.597-16.854 1.55-32.491-13.709-32.159-30.453-.531-12.78 7.863-25.204 19.778-29.722z"/></svg>