<?xml version="1.0" encoding="UTF-8"?>
<!DOCTYPE svg PUBLIC "-//W3C//DTD SVG 1.1//EN" "http://www.w3.org/Graphics/SVG/1.1/DTD/svg11.dtd">
<!-- Creator: CorelDRAW 2018 (64-Bit) -->
<svg xmlns="http://www.w3.org/2000/svg" xml:space="preserve" width="100%" height="100%" version="1.1" shape-rendering="geometricPrecision" text-rendering="geometricPrecision" image-rendering="optimizeQuality" fill-rule="evenodd" clip-rule="evenodd"
viewBox="0 0 4304 4386"
 xmlns:xlink="http://www.w3.org/1999/xlink">
 <g id="Слой_x0020_1">
  <metadata id="CorelCorpID_0Corel-Layer"/>
  <g id="odnoklass.pdf">
   <path fill="#F38735" fill-rule="nonzero" d="M691 0l22 0c117,3 235,2 352,7 75,2 151,1 226,5 461,1 922,0 1383,1 307,0 613,0 920,0 110,-4 220,-9 329,3 93,12 190,38 261,104 55,49 88,119 101,191 13,64 10,130 14,195 3,123 3,246 5,369l0 284c-3,250 -2,501 -6,751 -5,502 -3,1004 -3,1506 0,124 0,247 1,371 1,103 0,206 -22,307 -15,69 -44,137 -95,187 -62,61 -149,92 -235,99 -108,3 -215,2 -323,3 -86,3 -172,1 -258,2 -427,0 -854,0 -1280,0 -75,1 -151,-3 -226,-2 -310,-1 -620,-1 -931,-2 -111,0 -222,-1 -334,2 -120,2 -244,2 -357,-44 -75,-30 -139,-87 -175,-159 -30,-58 -44,-123 -50,-188 -10,-272 -7,-544 -10,-815l0 -1246c2,-14 3,-28 3,-42 0,-111 1,-223 1,-334 0,-61 -1,-122 2,-183 1,-217 2,-434 1,-651 0,-133 -8,-267 21,-398 19,-89 60,-179 134,-235 77,-61 177,-76 272,-80 85,-7 170,-5 256,-7zm1652 1213c-48,37 -92,87 -102,148 -14,79 19,156 51,226 43,86 86,172 114,263 38,114 59,235 56,355 -1,115 -25,229 -64,337 -33,97 -78,189 -116,284 -28,73 -55,154 -31,232 22,69 80,119 140,156 57,35 130,47 193,21 75,-31 129,-95 173,-161 94,-145 147,-310 196,-474 24,10 47,24 67,40 70,57 130,126 188,194 69,76 135,156 212,223 59,52 128,99 207,114 34,3 69,4 101,-9 67,-25 122,-76 160,-135 36,-55 44,-127 23,-189 -23,-66 -64,-122 -110,-174 -63,-70 -130,-136 -195,-204 -70,-73 -141,-146 -211,-219 -11,-12 -25,-23 -33,-37 1,-11 7,-21 12,-30 24,-42 57,-78 91,-113 123,-124 264,-232 370,-372 50,-68 93,-149 82,-236 -11,-80 -66,-145 -129,-192 -53,-39 -123,-56 -187,-38 -80,23 -145,79 -203,136 -144,144 -288,288 -432,432 -20,-29 -30,-64 -42,-96 -25,-68 -49,-136 -78,-202 -38,-88 -82,-175 -145,-248 -44,-51 -104,-96 -174,-100 -68,-6 -132,28 -185,67zm-1088 57c-177,10 -351,73 -493,180 -134,100 -240,237 -302,393 -69,167 -79,355 -48,532 41,219 165,420 338,559 136,112 306,181 481,194 96,4 194,-1 288,-27 179,-47 344,-148 466,-287 128,-144 208,-330 226,-522 13,-167 -8,-339 -80,-491 -119,-258 -362,-458 -641,-515 -77,-14 -156,-23 -235,-16zm22 552c89,-10 183,12 255,67 72,56 117,141 136,230 11,42 10,86 7,129 -20,171 -173,314 -344,328 -105,9 -209,-34 -286,-103 -37,-33 -58,-78 -76,-123 -22,-54 -45,-111 -43,-170 -4,-71 22,-141 64,-198 68,-90 175,-145 286,-159z"/>
   <path fill="#FEFEFE" fill-rule="nonzero" d="M2343 1213c53,-40 117,-74 185,-67 70,5 129,49 174,100 63,73 107,160 145,248 29,66 53,134 78,202 13,33 22,67 42,96 144,-144 288,-288 432,-432 58,-57 123,-113 203,-136 64,-19 134,-2 187,38 63,47 117,112 129,192 10,87 -33,168 -82,236 -106,141 -247,248 -370,372 -34,35 -67,71 -91,113 -5,9 -11,19 -12,30 8,15 21,25 33,37 70,73 141,146 211,219 65,68 132,134 195,204 45,51 87,108 110,174 21,62 13,134 -23,189 -39,59 -94,110 -160,135 -32,13 -67,11 -101,9 -79,-14 -148,-61 -207,-114 -78,-67 -144,-147 -212,-223 -59,-68 -118,-137 -188,-194 -20,-16 -43,-30 -67,-40 -48,164 -102,330 -196,474 -43,66 -98,130 -173,161 -63,26 -136,14 -193,-21 -60,-36 -118,-87 -140,-156 -23,-78 3,-159 31,-232 38,-95 83,-187 116,-284 39,-108 63,-222 64,-337 3,-121 -19,-241 -56,-355 -29,-92 -72,-178 -114,-263 -32,-70 -65,-147 -51,-226 11,-61 55,-111 102,-148zm-1088 57c78,-7 157,2 235,16 279,58 522,258 641,515 72,152 93,324 80,491 -18,192 -97,378 -226,522 -122,139 -287,240 -466,287 -93,26 -191,31 -288,27 -175,-13 -346,-82 -481,-194 -173,-139 -297,-340 -338,-559 -31,-177 -21,-364 48,-532 62,-155 167,-293 302,-393 142,-107 315,-171 493,-180zm22 552c-111,14 -218,69 -286,159 -42,56 -68,127 -64,198 -2,60 20,116 43,170 18,45 39,90 76,123 77,69 182,112 286,103 171,-14 324,-156 344,-328 3,-43 4,-87 -7,-129 -19,-88 -64,-174 -136,-230 -72,-55 -166,-77 -255,-67z"/>
  </g>
 </g>
</svg>
