<svg xmlns="http://www.w3.org/2000/svg" viewBox="0 0 1800.461 194.729" shape-rendering="geometricPrecision" text-rendering="geometricPrecision" image-rendering="optimizeQuality" fill-rule="evenodd" clip-rule="evenodd"><defs><style type="text/css"><![CDATA[
    .fil0 {fill:#00A0E3}
    .fil1 {fill:#FFED00;fill-rule:nonzero}
   ]]></style></defs><g id="Слой_x0020_1"><path class="fil0" d="M0 0h1800.461v194.729h-1800.461z"/><path class="fil1" d="M666.393 19.724h78.912v14.255h-62.79v37.505h29.019c10.72 0 19.233 1.018 25.569 3.083 6.336 2.036 11.398 5.883 15.217 11.568 3.818 5.657 5.713 12.247 5.713 19.77 0 6.138-1.357 11.88-4.101 17.197-2.744 5.346-6.816 9.701-12.247 13.067-5.402 3.366-14.651 5.063-27.69 5.063h-47.602v-121.508zm16.122 107.762h32.159c8.683 0 15.188-1.754 19.544-5.289 4.328-3.536 6.505-8.825 6.505-15.867 0-5.035-1.244-9.221-3.733-12.587-2.489-3.366-5.94-5.6-10.352-6.703-4.441-1.103-11.992-1.641-22.656-1.641h-21.467v42.087z"/><path id="1" class="fil1" d="M832.759 130.201c-5.544 4.724-10.889 8.033-16.009 9.984-5.119 1.952-10.606 2.914-16.489 2.914-9.673 0-17.112-2.348-22.316-7.071-5.205-4.695-7.807-10.72-7.807-18.045 0-4.3.99-8.231 2.942-11.795 1.98-3.564 4.554-6.392 7.721-8.542 3.197-2.149 6.76-3.79 10.748-4.893 2.942-.763 7.382-1.499 13.294-2.234 12.049-1.414 20.958-3.14 26.643-5.12.057-2.036.085-3.337.085-3.875 0-6.052-1.414-10.323-4.242-12.812-3.819-3.366-9.504-5.035-17.027-5.035-7.043 0-12.247 1.245-15.585 3.705-3.366 2.461-5.826 6.817-7.439 13.096l-14.594-2.036c1.329-6.251 3.507-11.314 6.562-15.161 3.054-3.846 7.467-6.788 13.237-8.881 5.741-2.065 12.445-3.111 20.025-3.111 7.523 0 13.661.877 18.384 2.659 4.696 1.781 8.174 3.988 10.381 6.675 2.206 2.687 3.761 6.081 4.666 10.182.481 2.545.736 7.127.736 13.718v19.798c0 13.831.311 22.571.933 26.276.594 3.705 1.839 7.241 3.649 10.635h-15.613c-1.499-3.14-2.461-6.816-2.885-11.031zm-1.188-33.092c-5.43 2.206-13.576 4.073-24.437 5.6-6.166.877-10.522 1.867-13.067 2.97-2.546 1.103-4.498 2.715-5.883 4.808-1.386 2.122-2.093 4.469-2.093 7.071 0 3.932 1.499 7.241 4.525 9.871 3.026 2.631 7.439 3.96 13.237 3.96 5.742 0 10.861-1.244 15.358-3.762 4.469-2.489 7.778-5.911 9.871-10.238 1.612-3.366 2.404-8.316 2.404-14.85l.085-5.43z"/><path id="2" class="fil1" d="M869.613 53.156h14.934v36.656h41.408v-36.656h14.934v88.076h-14.934v-39.032h-41.408v39.032h-14.934z"/><path id="3" class="fil1" d="M1023.394 112.722l15.443 2.036c-2.404 8.966-6.902 15.952-13.463 20.902-6.562 4.95-14.934 7.439-25.145 7.439-12.841 0-23.023-3.96-30.547-11.88-7.523-7.891-11.285-19.006-11.285-33.29 0-14.764 3.79-26.247 11.398-34.393 7.609-8.174 17.48-12.247 29.614-12.247 11.738 0 21.326 3.988 28.765 11.992 7.438 8.005 11.172 19.262 11.172 33.771 0 .877-.028 2.207-.085 3.96h-65.591c.566 9.645 3.281 17.055 8.203 22.175 4.893 5.119 11.031 7.693 18.356 7.693 5.459 0 10.126-1.442 13.972-4.327 3.875-2.885 6.93-7.496 9.193-13.831zm-48.875-23.929h49.044c-.65-7.41-2.545-12.954-5.628-16.659-4.724-5.741-10.889-8.626-18.441-8.626-6.845 0-12.587 2.291-17.254 6.873-4.638 4.582-7.212 10.719-7.721 18.412z"/><path id="4" class="fil1" d="M1057.702 175.003v-121.847h13.577v11.568c3.196-4.469 6.816-7.835 10.861-10.069 4.016-2.235 8.909-3.366 14.651-3.366 7.523 0 14.142 1.923 19.884 5.798 5.741 3.847 10.069 9.306 13.01 16.32 2.913 7.043 4.384 14.736 4.384 23.136 0 8.966-1.612 17.056-4.836 24.268-3.225 7.184-7.92 12.699-14.086 16.546-6.137 3.818-12.614 5.742-19.403 5.742-4.978 0-9.446-1.047-13.378-3.14-3.96-2.093-7.184-4.723-9.73-7.919v42.963h-14.934zm13.577-77.272c0 11.286 2.291 19.629 6.845 25.032 4.582 5.402 10.125 8.117 16.631 8.117 6.618 0 12.275-2.8 16.97-8.4 4.723-5.601 7.071-14.255 7.071-25.993 0-11.201-2.291-19.573-6.901-25.145-4.611-5.572-10.098-8.344-16.49-8.344-6.336 0-11.936 2.97-16.801 8.882-4.893 5.939-7.325 14.538-7.325 25.851z"/></g></svg>