<?xml version="1.0" encoding="UTF-8"?>
<!DOCTYPE svg PUBLIC "-//W3C//DTD SVG 1.1//EN" "http://www.w3.org/Graphics/SVG/1.1/DTD/svg11.dtd">
<!-- Creator: CorelDRAW 2018 (64-Bit) -->
<svg xmlns="http://www.w3.org/2000/svg" xml:space="preserve" width="100%" height="100%" version="1.1" shape-rendering="geometricPrecision" text-rendering="geometricPrecision" image-rendering="optimizeQuality" fill-rule="evenodd" clip-rule="evenodd"
viewBox="0 0 10367 1905"
 xmlns:xlink="http://www.w3.org/1999/xlink">
 <g id="Слой_x0020_1">
  <metadata id="CorelCorpID_0Corel-Layer"/>
  <rect fill="#DFF1FD" y="1" width="10367" height="1905"/>
  <polygon fill="#0089CB" points="0,0 7160,0 7908,1905 0,1905 "/>
  <path fill="#FEFEFE" fill-rule="nonzero" d="M1944 622l0 -110 108 0 0 110c110,6 197,39 261,100 64,61 96,136 96,226 0,88 -31,163 -93,225 -62,62 -150,96 -264,102l0 111 -108 0 0 -111c-102,-4 -188,-35 -256,-94 -68,-58 -102,-136 -102,-233 0,-97 34,-174 102,-232 68,-58 153,-89 256,-94zm108 98l0 456c74,-4 132,-25 175,-65 43,-40 64,-94 64,-163 0,-68 -21,-122 -62,-162 -42,-40 -100,-62 -176,-66zm-108 1c-71,3 -129,24 -173,63 -44,39 -66,94 -66,164 0,69 22,123 65,163 44,40 102,61 174,64l0 -454z"/>
  <path id="1" fill="#FEFEFE" fill-rule="nonzero" d="M2515 964c0,-144 39,-256 116,-337 77,-81 177,-122 299,-122 80,0 152,19 216,57 64,38 113,91 147,160 34,68 51,146 51,232 0,88 -18,166 -53,236 -35,69 -86,122 -151,157 -65,36 -135,53 -210,53 -82,0 -154,-20 -219,-59 -64,-39 -113,-93 -146,-161 -33,-68 -50,-140 -50,-216zm118 2c0,104 28,186 84,246 56,60 126,90 211,90 86,0 157,-30 213,-91 56,-61 83,-146 83,-258 0,-70 -12,-132 -36,-184 -24,-52 -59,-93 -104,-122 -46,-29 -97,-43 -154,-43 -81,0 -151,28 -209,83 -58,56 -88,148 -88,278z"/>
  <polygon id="2" fill="#FEFEFE" fill-rule="nonzero" points="3711,1385 3711,621 3426,621 3426,519 4111,519 4111,621 3826,621 3826,1385 "/>
  <path id="3" fill="#FEFEFE" fill-rule="nonzero" d="M4140 964c0,-144 39,-256 116,-337 77,-81 177,-122 299,-122 80,0 152,19 216,57 64,38 113,91 147,160 34,68 51,146 51,232 0,88 -18,166 -53,236 -35,69 -86,122 -151,157 -65,36 -135,53 -210,53 -82,0 -154,-20 -219,-59 -64,-39 -113,-93 -146,-161 -33,-68 -50,-140 -50,-216zm118 2c0,104 28,186 84,246 56,60 126,90 211,90 86,0 157,-30 213,-91 56,-61 83,-146 83,-258 0,-70 -12,-132 -36,-184 -24,-52 -59,-93 -104,-122 -46,-29 -97,-43 -154,-43 -81,0 -151,28 -209,83 -58,56 -88,148 -88,278z"/>
 </g>
</svg>
