<svg xmlns="http://www.w3.org/2000/svg" shape-rendering="geometricPrecision" text-rendering="geometricPrecision" image-rendering="optimizeQuality" fill-rule="evenodd" clip-rule="evenodd" viewBox="0 0 294.254 294.254"><path fill="#E30A10" d="M186.336 0h3.046c12.932 4.694 24.335 12.712 35.178 21.039 17.979 14.272 34.325 30.618 48.611 48.582 8.327 10.931 16.537 22.363 21.083 35.442v3.149c-.765 2.221-1.913 4.311-3.664 5.9-11.269 11.255-22.51 22.525-33.78 33.78-2.413 2.604-6.135 4.223-9.666 3.163-3.516-.809-5.826-3.854-8.21-6.297-24.173 30.809-47.875 62-71.886 92.94-3.178 4.65-10.682 5.209-14.404.927-32.353-32.353-64.721-64.721-97.074-97.089-4.237-3.737-3.634-11.196 1-14.33 30.971-23.923 61.956-47.831 92.955-71.71-2.413-2.545-5.517-4.884-6.356-8.46-.986-3.472.559-7.194 3.164-9.548 10.284-10.299 20.597-20.583 30.867-30.882 2.677-2.648 5.237-5.826 9.136-6.606zm-34.06 79.155c-19.994 16.007-39.165 33.132-58.865 49.567-3.84 2.795-5.326 8.577-2.604 12.638 2.736 5.002 10.225 6.017 14.3 2.104 19.112-16.228 38.254-32.427 57.336-48.714 3.104-2.501 4.207-7.106 2.619-10.755-1.839-4.811-8.181-7.357-12.786-4.84zm-146.641 194.384c25.497-29.132 50.979-58.263 76.476-87.408 8.696 8.651 17.361 17.316 26.012 26.012-28.851 25.246-57.717 50.479-86.554 75.741-2.884 2.412-5.532 5.487-9.357 6.37h-3.031c-4.414-1.221-8.077-4.84-9.181-9.299v-2.28c.397-3.781 3.296-6.429 5.635-9.136z"/></svg>