<svg xmlns="http://www.w3.org/2000/svg" shape-rendering="geometricPrecision" text-rendering="geometricPrecision" image-rendering="optimizeQuality" fill-rule="evenodd" clip-rule="evenodd" viewBox="0 0 559.123 559.123"><g><path fill="#fff" d="M189.778 64.089c2.347-.663 4.8-.647 7.216-.615 2.979.042 6.058-.271 8.915.775 3.966 1.38 7.301 4.056 10.646 6.51 5.878 5.283 11.284 11.129 15.813 17.612 4.545 4.975 7.789 10.922 11.501 16.503 2.458 4.402 4.981 8.804 6.627 13.593 2.299 5.883 3.998 12.154 3.701 18.526.053 6.685.435 13.752-2.815 19.853-2.633 6.282-7.317 11.353-11.989 16.18-1.906 2.038-3.887 4.115-6.324 5.5-2.06.144-4.184.277-6.218-.111-1.545-1.174-2.973-2.703-3.25-4.699-1.831-8.905-5.182-17.379-8.283-25.896-1.29-3.17-3.175-6.053-4.423-9.239-1.195-3.053-3.032-5.777-4.699-8.576-2.166-3.993-4.869-7.646-7.206-11.527-3.122-3.935-6.069-8.018-9.43-11.751-4.699-4.529-8.957-9.552-14.241-13.434-2.033-1.64-3.924-3.462-6.069-4.964-1.067-.86-2.331-1.652-2.947-2.915-.212-2.241-.212-4.514 0-6.749 2.655-3.775 6.855-5.984 10.636-8.464 4.141-2.289 8.15-5.055 12.839-6.112zm-44.029 31.27c2.453-.202 4.981-.292 7.423.053 7.179 4.641 13.641 10.317 19.689 16.333 4.662 5.108 9.271 10.296 13.073 16.099 4.539 6.478 8.352 13.434 11.787 20.555 4.068 9.483 7.647 19.216 9.962 29.294 1.072 4.779 2.612 9.563 2.41 14.522-.026 1.503.085 3.021-.132 4.514-1.487 1.879-3.765 2.936-5.209 4.863-4.137 5.135-6.685 11.639-6.93 18.234.855 10.349 4.561 20.215 8.788 29.618 6.685 14.618 15.282 28.286 24.388 41.502 10.025 14.575 20.894 28.556 32.108 42.239 5.374 6.292 10.673 12.659 16.424 18.606 2.124 2.809 4.768 5.15 7.221 7.662 2.305 2.31 4.519 4.72 7.126 6.701 5.076 4.89 10.63 9.287 16.354 13.402 8.172 5.485 17.044 10.561 26.937 11.958 5.92.483 11.453-2.459 16.226-5.645 2.597-.717 5.448-.451 8.114-.207 6.138 2.782 11.819 6.483 17.528 10.046 8.198 5.629 16.465 11.31 23.49 18.404 3.297 2.687 6.372 5.666 9.101 8.931 10.646 11.475 19.349 24.632 26.985 38.263.663 2.421.228 5.017.302 7.513.128 1.11-.913 1.779-1.625 2.443-1.688 1.253-3.674 2.001-5.58 2.846-16.487 7.694-33.802 13.731-51.67 17.256-4.359.712-8.687 1.854-13.131 1.737-1.699-.101-3.568.313-5.087-.643-23.278-14.379-45.383-30.664-66.102-48.521-3.265-2.931-6.775-5.591-9.796-8.782-8.204-6.791-15.569-14.512-23.141-21.999-4.513-4.513-8.984-9.063-13.497-13.577-1.885-1.678-3.255-3.812-5.05-5.564-2.655-2.491-4.81-5.433-7.349-8.029-37.428-42.064-70.562-88.233-96.218-138.437-3.08-6.346-6.516-12.521-9.213-19.047-3.175-5.994-5.533-12.377-8.4-18.52-6-14.655-11.692-29.454-16.466-44.555-.239-3.032-.621-6.271.345-9.207 7.153-16.561 16.036-32.416 26.932-46.811 3.812-4.795 7.194-10.041 11.883-14.05zm254.797 261.094c3.801-.605 7.656-.303 11.49-.388 6.791-.085 13.418 2.076 19.333 5.299 2.782 1.599 5.719 2.979 8.156 5.109 5.926 3.844 10.874 8.947 15.781 13.985 2.973 2.724 5.108 6.202 7.954 9.059 2.607 2.612 4.295 5.931 6.589 8.793 3.898 4.938 7.163 10.429 9.096 16.439 1.991 4.514 1.317 9.531 1.38 14.316-.074 4.975-3.106 9.116-5.856 12.993-4.354 4.301-8.491 8.862-13.381 12.563-2.039.993-4.418.509-6.6.589-1.774.202-2.926-1.386-3.86-2.639-1.965-3.547-3.393-7.391-5.693-10.752-1.741-2.576-3.063-5.4-4.784-7.986-5.124-7.508-10.614-14.783-16.672-21.553-2.284-1.986-3.924-4.572-6.208-6.547-2.936-2.352-5.384-5.241-8.384-7.513-6.255-5.172-12.499-10.471-19.598-14.469-2.384-1.328-4.625-2.91-7.062-4.142-1.991-1.035-4.137-2.05-5.475-3.929-.201-2.469-.255-4.992.032-7.45 2.899-3.85 7.482-5.682 11.517-8.044 3.829-1.928 7.954-3.335 12.245-3.733z"/><path fill="#808285" d="M60.442 0h437.698c1.019.239 2.06.446 3.117.531 16.949 1.588 33.213 10.29 43.62 23.809 7.72 9.329 12.372 21.054 13.603 33.075.17 2.251-.079 4.556.643 6.738v428.141c-.913 2.729-.393 5.618-.557 8.432-1.275 14.766-8.045 28.885-18.404 39.436-10.158 10.062-23.735 16.588-37.918 18.334-2.782.287-5.644-.292-8.341.627h-430.265c-3.085-.945-6.366-.239-9.483-1.03-15.011-2.273-28.955-10.243-38.767-21.792-8.623-10.03-13.986-22.858-14.969-36.058-.111-.707-.254-1.402-.419-2.087v-437.704c.966-5.278 1.317-10.72 3.234-15.786 6.658-21.696 25.88-38.868 48.128-43.222 2.995-.679 6.095-.733 9.08-1.444zm129.336 64.089c-4.689 1.057-8.698 3.823-12.839 6.112-3.781 2.48-7.981 4.689-10.636 8.464-.212 2.235-.212 4.508 0 6.749.616 1.263 1.88 2.055 2.947 2.915 2.145 1.502 4.036 3.324 6.069 4.964 5.284 3.882 9.542 8.905 14.241 13.434 3.361 3.733 6.308 7.816 9.43 11.751 2.337 3.881 5.04 7.534 7.206 11.527 1.667 2.799 3.504 5.523 4.699 8.576 1.248 3.186 3.133 6.069 4.423 9.239 3.101 8.517 6.452 16.991 8.283 25.896.277 1.996 1.705 3.525 3.25 4.699 2.034.388 4.158.255 6.218.111 2.437-1.385 4.418-3.462 6.324-5.5 4.672-4.827 9.356-9.898 11.989-16.18 3.25-6.101 2.868-13.168 2.815-19.853.297-6.372-1.402-12.643-3.701-18.526-1.646-4.789-4.169-9.191-6.627-13.593-3.712-5.581-6.956-11.528-11.501-16.503-4.529-6.483-9.935-12.329-15.813-17.612-3.345-2.454-6.68-5.13-10.646-6.51-2.857-1.046-5.936-.733-8.915-.775-2.416-.032-4.869-.048-7.216.615zm-44.029 31.27c-4.689 4.009-8.071 9.255-11.883 14.05-10.896 14.395-19.779 30.25-26.932 46.811-.966 2.936-.584 6.175-.345 9.207 4.774 15.101 10.466 29.9 16.466 44.555 2.867 6.143 5.225 12.526 8.4 18.52 2.697 6.526 6.133 12.701 9.213 19.047 25.656 50.204 58.79 96.373 96.218 138.437 2.539 2.596 4.694 5.538 7.349 8.029 1.795 1.752 3.165 3.886 5.05 5.564 4.513 4.514 8.984 9.064 13.497 13.577 7.572 7.487 14.937 15.208 23.141 21.999 3.021 3.191 6.531 5.851 9.796 8.782 20.719 17.857 42.824 34.142 66.102 48.521 1.519.956 3.388.542 5.087.643 4.444.117 8.772-1.025 13.131-1.737 17.868-3.525 35.183-9.562 51.67-17.256 1.906-.845 3.892-1.593 5.58-2.846.712-.664 1.753-1.333 1.625-2.443-.074-2.496.361-5.092-.302-7.513-7.636-13.631-16.339-26.788-26.985-38.263-2.729-3.265-5.804-6.244-9.101-8.931-7.025-7.094-15.292-12.775-23.49-18.404-5.709-3.563-11.39-7.264-17.528-10.046-2.666-.244-5.517-.51-8.114.207-4.773 3.186-10.306 6.128-16.226 5.645-9.893-1.397-18.765-6.473-26.937-11.958-5.724-4.115-11.278-8.512-16.354-13.402-2.607-1.981-4.821-4.391-7.126-6.701-2.453-2.512-5.097-4.853-7.221-7.662-5.751-5.947-11.05-12.314-16.424-18.606-11.214-13.683-22.083-27.664-32.108-42.239-9.106-13.216-17.703-26.884-24.388-41.502-4.227-9.403-7.933-19.269-8.788-29.618.245-6.595 2.793-13.099 6.93-18.234 1.444-1.927 3.722-2.984 5.209-4.863.217-1.493.106-3.011.132-4.514.202-4.959-1.338-9.743-2.41-14.522-2.315-10.078-5.894-19.811-9.962-29.294-3.435-7.121-7.248-14.077-11.787-20.555-3.802-5.803-8.411-10.991-13.073-16.099-6.048-6.016-12.51-11.692-19.689-16.333-2.442-.345-4.97-.255-7.423-.053zm254.797 261.094c-4.291.398-8.416 1.805-12.245 3.733-4.035 2.362-8.618 4.194-11.517 8.044-.287 2.458-.233 4.981-.032 7.45 1.338 1.879 3.484 2.894 5.475 3.929 2.437 1.232 4.678 2.814 7.062 4.142 7.099 3.998 13.343 9.297 19.598 14.469 3 2.272 5.448 5.161 8.384 7.513 2.284 1.975 3.924 4.561 6.208 6.547 6.058 6.77 11.548 14.045 16.672 21.553 1.721 2.586 3.043 5.41 4.784 7.986 2.3 3.361 3.728 7.205 5.693 10.752.934 1.253 2.086 2.841 3.86 2.639 2.182-.08 4.561.404 6.6-.589 4.89-3.701 9.027-8.262 13.381-12.563 2.75-3.877 5.782-8.018 5.856-12.993-.063-4.785.611-9.802-1.38-14.316-1.933-6.01-5.198-11.501-9.096-16.439-2.294-2.862-3.982-6.181-6.589-8.793-2.846-2.857-4.981-6.335-7.954-9.059-4.907-5.038-9.855-10.141-15.781-13.985-2.437-2.13-5.374-3.51-8.156-5.109-5.915-3.223-12.542-5.384-19.333-5.299-3.834.085-7.689-.217-11.49.388z"/></g></svg>