<?xml version="1.0" encoding="UTF-8"?>
<!DOCTYPE svg PUBLIC "-//W3C//DTD SVG 1.1//EN" "http://www.w3.org/Graphics/SVG/1.1/DTD/svg11.dtd">
<!-- Creator: CorelDRAW 2018 (64-Bit) -->
<svg xmlns="http://www.w3.org/2000/svg" xml:space="preserve" width="100%" height="100%" version="1.1" shape-rendering="geometricPrecision" text-rendering="geometricPrecision" image-rendering="optimizeQuality" fill-rule="evenodd" clip-rule="evenodd"
viewBox="0 0 4487 4461"
 xmlns:xlink="http://www.w3.org/1999/xlink">
 <g id="Слой_x0020_1">
  <metadata id="CorelCorpID_0Corel-Layer"/>
  <g id="telegramm.pdf">
   <path fill="#0C81CF" fill-rule="nonzero" d="M165 102c82,-65 186,-101 291,-102 1200,0 2400,0 3601,0 46,0 92,-2 138,5 113,16 219,75 292,162l0 4126c-87,105 -222,168 -359,168 -1220,0 -2440,0 -3660,0 -79,1 -159,-17 -229,-55 -117,-61 -205,-173 -238,-301l0 -3750c26,-100 84,-190 165,-254zm3818 509c-1134,438 -2268,875 -3402,1312 -44,17 -88,32 -129,55 -42,23 -84,51 -108,93 -15,26 -15,61 3,86 26,38 70,58 113,72 162,51 325,102 487,153 139,44 279,87 418,131 12,44 26,87 39,130 83,273 165,546 248,818 13,45 30,90 42,135 7,23 14,49 35,62 23,15 52,15 78,15 24,0 48,-3 71,-11 43,-15 76,-48 109,-79 124,-120 248,-241 372,-361 21,-20 40,-42 63,-59 288,213 576,425 865,638 16,11 30,24 47,32 45,23 94,40 145,37 37,-2 73,-19 99,-46 39,-41 58,-97 70,-152 193,-910 386,-1820 580,-2730 7,-34 16,-68 21,-103 8,-57 5,-119 -23,-171 -21,-38 -58,-67 -100,-77 -47,-12 -97,-2 -140,18z"/>
   <path fill="#F3F9FD" fill-rule="nonzero" d="M3983 611c43,-20 93,-29 140,-18 42,10 79,39 100,77 29,52 31,113 23,171 -5,35 -14,69 -21,103 -193,910 -386,1820 -580,2730 -12,55 -31,111 -70,152 -26,27 -62,44 -99,46 -51,3 -100,-14 -145,-37 -17,-8 -32,-21 -47,-32 -288,-213 -577,-425 -865,-638 -180,-132 -359,-264 -538,-397 -5,-4 -11,-8 -16,-12 553,-497 1106,-993 1659,-1490 15,-14 32,-27 40,-46 4,-9 3,-22 -6,-28 -13,-11 -32,-12 -49,-10 -32,3 -62,16 -88,34 -482,304 -965,608 -1447,912 -204,128 -408,257 -612,385 -139,-45 -278,-87 -418,-131 -162,-51 -325,-102 -487,-153 -42,-14 -86,-34 -113,-72 -18,-25 -18,-60 -3,-86 24,-42 66,-70 108,-93 41,-22 86,-38 129,-55 1134,-437 2268,-875 3402,-1312z"/>
   <path fill="#C8DAEA" fill-rule="nonzero" d="M3423 1216c27,-17 57,-31 88,-34 17,-1 35,-1 49,10 8,7 10,19 6,28 -8,19 -25,32 -40,46 -553,496 -1106,993 -1659,1490 5,4 10,8 16,12 -2,4 -4,8 -5,13 -23,278 -46,556 -69,835 -2,20 -3,40 -2,60 -26,0 -55,-1 -78,-15 -21,-14 -28,-40 -35,-62 -13,-46 -29,-90 -42,-135 -83,-273 -165,-546 -248,-818 -13,-43 -27,-86 -39,-130 204,-128 408,-257 612,-385 482,-304 965,-608 1447,-912z"/>
   <path fill="#A9C9DD" fill-rule="nonzero" d="M1878 2781c0,-5 3,-9 5,-13 179,132 358,265 538,397 -23,18 -42,40 -63,59 -124,120 -248,241 -372,361 -32,31 -66,64 -109,79 -23,8 -47,11 -71,11 -1,-20 0,-40 2,-60 23,-278 47,-556 69,-835z"/>
  </g>
 </g>
</svg>
