<?xml version="1.0" encoding="UTF-8"?>
<!DOCTYPE svg PUBLIC "-//W3C//DTD SVG 1.1//EN" "http://www.w3.org/Graphics/SVG/1.1/DTD/svg11.dtd">
<!-- Creator: CorelDRAW 2018 (64-Bit) -->
<svg xmlns="http://www.w3.org/2000/svg" xml:space="preserve" width="100%" height="100%" version="1.1" shape-rendering="geometricPrecision" text-rendering="geometricPrecision" image-rendering="optimizeQuality" fill-rule="evenodd" clip-rule="evenodd"
viewBox="0 0 5007 5007"
 xmlns:xlink="http://www.w3.org/1999/xlink">
 <g id="Слой_x0020_1">
  <metadata id="CorelCorpID_0Corel-Layer"/>
  <g id="vk.pdf">
   <path fill="#4C75A3" fill-rule="nonzero" d="M737 1c174,-2 348,0 522,-1 963,0 1926,0 2889,0 62,0 125,-2 187,7 180,23 350,112 471,247 127,139 200,326 200,514 0,1123 0,2247 0,3370 -1,64 3,129 -6,193 -21,178 -108,347 -239,468 -134,126 -313,201 -496,207 -46,1 -92,0 -139,1 -1086,0 -2172,0 -3257,0 -73,-1 -147,3 -219,-10 -176,-27 -340,-118 -458,-252 -123,-138 -192,-321 -192,-506 0,-1155 0,-2310 0,-3466 -1,-179 63,-357 178,-494 137,-166 345,-270 560,-278zm1469 1561c-60,4 -121,10 -178,30 -42,15 -80,43 -103,82 -4,7 -10,24 4,24 46,8 93,22 129,53 22,18 37,44 46,70 21,61 26,126 28,190 5,100 6,200 -3,299 -5,49 -12,99 -30,145 -10,24 -24,49 -50,57 -34,12 -68,-8 -93,-29 -51,-42 -89,-96 -127,-150 -125,-184 -231,-381 -315,-586 -11,-29 -28,-58 -54,-76 -30,-18 -64,-30 -99,-28 -155,2 -309,2 -464,3 -35,3 -75,7 -101,34 -20,29 -9,67 3,96 91,205 191,406 300,602 105,187 217,369 347,540 99,130 210,255 343,351 181,133 399,219 625,232 76,1 153,0 229,1 42,1 87,-11 117,-41 31,-35 28,-85 30,-128 5,-74 15,-151 52,-217 21,-37 60,-70 105,-64 46,8 82,40 115,70 82,80 151,173 233,252 64,63 143,115 233,130 40,8 80,1 120,2 134,-2 267,-4 401,-6 39,-2 78,-11 112,-30 29,-16 52,-46 52,-80 1,-49 -29,-91 -53,-132 -65,-100 -147,-187 -231,-272 -71,-72 -148,-136 -218,-210 -32,-35 -65,-78 -60,-128 8,-57 44,-105 76,-151 132,-178 276,-348 390,-539 36,-61 71,-124 89,-193 7,-31 12,-71 -15,-95 -34,-28 -80,-30 -122,-31 -61,3 -121,2 -182,3 -132,1 -264,2 -395,2 -25,0 -50,9 -66,28 -25,25 -34,60 -47,91 -46,111 -96,221 -156,326 -47,82 -97,162 -152,239 -39,53 -79,105 -130,147 -22,17 -49,35 -78,30 -26,-8 -43,-32 -55,-55 -25,-53 -25,-114 -26,-172 3,-126 3,-253 9,-379 2,-60 5,-119 -1,-179 -4,-39 -15,-80 -44,-107 -28,-27 -67,-36 -104,-44 -70,-15 -143,-16 -214,-17 -74,0 -148,-1 -222,3z"/>
   <path fill="white" fill-rule="nonzero" d="M2207 1562c74,-5 148,-4 222,-3 72,1 144,2 214,17 37,8 76,17 104,44 29,28 39,69 44,107 6,59 3,119 1,179 -6,126 -6,253 -9,379 1,58 1,118 26,172 12,23 29,47 55,55 29,6 56,-13 78,-30 51,-42 91,-94 130,-147 55,-77 105,-157 152,-239 59,-105 110,-214 156,-326 13,-32 23,-66 47,-91 16,-19 41,-28 66,-28 132,0 264,-1 395,-2 61,-1 121,0 182,-3 42,1 89,3 122,31 26,24 22,64 15,95 -18,69 -53,132 -89,193 -115,190 -259,361 -390,539 -32,46 -68,93 -76,151 -5,50 28,93 60,128 69,73 147,138 218,210 84,84 166,172 231,272 24,41 54,83 53,132 0,34 -23,64 -52,80 -34,19 -73,28 -112,30 -134,2 -267,4 -401,6 -40,-1 -80,6 -120,-2 -90,-16 -169,-68 -233,-130 -82,-80 -151,-173 -233,-252 -33,-30 -69,-62 -115,-70 -45,-6 -84,27 -105,64 -37,66 -47,142 -52,217 -2,43 1,93 -30,128 -31,30 -75,42 -117,41 -76,-1 -153,1 -229,-1 -225,-13 -443,-99 -625,-232 -133,-97 -244,-221 -343,-351 -129,-171 -242,-353 -347,-540 -109,-196 -209,-397 -300,-602 -12,-30 -22,-68 -3,-96 26,-27 66,-32 101,-34 155,-2 309,-2 464,-3 35,-2 70,10 99,28 27,18 43,47 54,76 84,206 190,403 315,586 38,54 77,108 127,150 26,21 59,40 93,29 26,-8 41,-33 50,-57 18,-46 25,-96 30,-145 9,-99 8,-199 3,-299 -2,-64 -6,-129 -28,-190 -9,-27 -24,-52 -46,-70 -36,-31 -83,-45 -129,-53 -13,-1 -8,-17 -4,-24 23,-39 61,-67 103,-82 57,-21 118,-26 178,-30z"/>
  </g>
 </g>
</svg>
