<svg xmlns="http://www.w3.org/2000/svg" shape-rendering="geometricPrecision" text-rendering="geometricPrecision" image-rendering="optimizeQuality" fill-rule="evenodd" clip-rule="evenodd" viewBox="0 0 525.344 521.849"><g><path fill="#fff" d="M201.828 63.461c42.157-12.35 88.235-10.822 129.483 4.295 8.255 2.936 16.255 6.541 24.085 10.457l.954.724c5.618 2.532 10.831 5.892 16.075 9.113 15.725 9.948 29.918 22.223 42.472 35.931 7.521 8.039 14.042 16.943 20.2 26.052 18.077 27.695 29.463 59.715 32.869 92.619 1.168 11.786 1.763 23.686.749 35.506-.4 9.163-1.553 18.317-3.376 27.311-7.616 41.573-28.674 80.444-58.822 110.007-15.54 15.311-33.503 28.14-52.988 37.953-20.799 10.392-43.341 17.319-66.403 20.33-36.564 4.804-74.417-.23-108.369-14.682-16.46-6.901-32-15.99-46.138-26.891-5.163-4.17-10.477-8.19-15.126-12.949-5.213-4.23-9.478-9.438-14.112-14.252-7.646-8.829-14.737-18.168-20.904-28.09-13.004-20.804-22.382-43.886-27.496-67.881-9.787-44.494-4.354-92.165 15.226-133.303 9.209-19.521 21.494-37.578 36.16-53.403 3.681-3.641 7.271-7.371 10.986-10.982 2.972-2.497 5.813-5.138 8.735-7.695 5.772-4.734 11.835-9.099 17.937-13.398 17.823-11.676 37.284-20.944 57.803-26.772zm46.822 14.946c-5.454 8.045-8.944 17.209-12.041 26.362-6.881 21.504-10.876 43.816-13.787 66.163 24.01 1.453 48.09 1.748 72.13.879-2.013-16.095-4.754-32.115-8.53-47.895-2.801-11.396-6.082-22.722-10.831-33.474-2.687-5.962-5.788-11.885-10.352-16.634-.879-.799-1.718-1.927-3.026-1.903-2.502-.119-5.024-.164-7.516.09-2.572 1.504-4.29 4.075-6.047 6.412zm34.966-4.594c5.108 8.814 8.844 18.347 11.95 28.03 7.061 22.532 11.176 45.873 14.157 69.264 18.582-1.069 37.124-2.857 55.546-5.519-5.064-13.278-11.151-26.197-18.767-38.217-10.307-16.309-23.251-31.261-39.356-42.057-7.245-4.934-15.211-8.754-23.53-11.501zm-75.865 15.116c-11.636 8.754-21.464 19.731-29.788 31.636-9.184 13.223-16.545 27.67-22.332 42.676 17.373 3.017 34.901 5.134 52.474 6.577 2.417-18.761 5.628-37.448 10.457-55.75 3.616-13.528 7.98-27.001 14.921-39.231-9.273 3.256-17.912 8.17-25.732 14.092zm-104.81 62.502c12.495 3.611 25.169 6.582 37.918 9.149 9.358-24.794 22.497-48.495 40.769-67.86 2.497-2.762 5.154-5.384 8.025-7.761-34.497 13.229-64.839 36.739-86.712 66.472zm227.776-66.337c22.822 21.269 38.836 48.974 49.323 78.152 13.099-2.127 26.108-4.838 38.967-8.109-21.468-31.546-52.714-56.26-88.29-70.043zm-237.124 80.36c-16.819 27.665-26.682 59.61-27.9 91.985 19.096-.04 38.197-.02 57.293-.01.555-28.015 4.784-56.01 13.079-82.797-13.798-2.806-27.486-6.152-40.989-10.132-.784-.46-1.108.439-1.483.954zm291.162 11.975c7.72 25.942 11.685 52.959 12.214 80.005 18.607-.03 37.214-.01 55.821-.015-1.099-31.211-9.983-62.053-25.474-89.159-14.052 3.636-28.254 6.702-42.561 9.169zm-234.163-.04c-8.125 25.882-12.295 52.939-12.904 80.045 21.613-.025 43.231-.015 64.844-.01.19-24.345 1.373-48.689 3.885-72.909-18.691-1.633-37.323-3.97-55.825-7.126zm160.794 8.369c2.382 23.821 3.566 47.751 3.756 71.686 22.372-.055 44.744-.01 67.116-.025-.56-26.252-4.505-52.46-12.145-77.593-19.486 2.776-39.076 4.814-58.727 5.932zm-90.302-.184c-2.412 23.875-3.67 47.865-3.815 71.86 27.71-.03 55.415-.02 83.126-.005-.14-23.686-1.363-47.366-3.725-70.937-25.194.919-50.428.659-75.586-.918zm-155.456 86.542c1.074 33.238 11.241 66.032 28.664 94.322 13.983-4.065 28.11-7.626 42.392-10.442-8.569-27.071-13.048-55.406-13.658-83.781-19.131-.189-38.262.015-57.398-.099zm72.08.079c.734 27.481 5.049 54.927 13.583 81.089 18.392-3.241 36.949-5.468 55.551-7.071-2.737-24.579-4.005-49.314-4.29-74.043-21.613-.03-43.231-.08-64.844.025zm79.601-.06c.209 24.395 1.533 48.79 4.229 73.034 24.864-1.588 49.813-1.872 74.707-.909 2.612-23.945 3.845-48.025 4.155-72.105-27.7-.03-55.396.005-83.091-.02zm97.813.06c-.275 24.295-1.574 48.585-4.115 72.755 19.56 1.118 39.071 3.121 58.467 5.877 7.97-25.458 12.11-52.06 12.769-78.717-22.372.11-44.749-.054-67.121.085zm81.812-.01c-.589 27.426-4.784 54.802-12.794 81.049 14.302 2.397 28.49 5.463 42.532 9.089 15.95-27.286 24.969-58.547 26.113-90.123-18.617-.104-37.234-.075-55.851-.015zm-173.603 87.606c1.353 10.282 3.081 20.509 5.129 30.677 3.211 15.43 7.061 30.841 13.333 45.348 2.792 6.322 6.023 12.639 10.912 17.613 2.132 2.063 5.258 4.165 8.294 2.737 4.215-2.063 7.036-6.053 9.483-9.913 5.458-8.929 8.964-18.881 12.05-28.834 5.683-19.116 9.249-38.792 11.955-58.527-23.715-.794-47.47-.569-71.156.899zm85.888-.16c-3.351 24.764-7.87 49.553-16.27 73.154-2.881 7.745-6.172 15.406-10.671 22.362 15.775-4.674 29.852-14.018 41.533-25.473 18.327-18.033 31.47-40.789 40.639-64.669-18.327-2.557-36.754-4.395-55.231-5.374zm-152.854 7.676c9.158 22.866 21.862 44.674 39.48 62.072 11.007 10.867 24.135 19.85 38.872 24.799-5.653-9.303-9.588-19.525-12.864-29.873-6.427-20.674-10.332-42.042-13.258-63.465-17.489 1.463-34.912 3.625-52.23 6.467zm171.071 79.101c36.565-13.758 68.669-38.927 90.917-71.026-12.899-3.162-25.908-5.873-39.007-8.06-11.061 29.762-27.805 58.052-51.91 79.086zm-224.495-67.061c1.568 1.957 3.067 3.975 4.63 5.937 22.277 28.155 52.514 49.873 86.262 62.103-10.112-8.365-18.852-18.292-26.527-28.914-10.652-14.912-19.091-31.331-25.663-48.42-13.029 2.502-25.968 5.548-38.702 9.294z"/><path fill="#808285" d="M55.176 0h416.96l-.765.225c10.442 1.139 20.64 4.889 29.114 11.131 14.267 10.282 23.79 26.981 24.859 44.589v412.96c-.25 3.81-.804 7.63-1.808 11.321-.329 1.158-.659 2.322-.983 3.485-1.793 4.894-3.791 9.788-6.832 14.063-1.923 2.701-3.89 5.378-6.032 7.91-6.652 7.251-15.127 12.684-24.305 16.165h-444.885c-7.016-2.612-13.712-6.268-19.32-11.261-11.776-10.003-19.426-24.744-20.645-40.16-.015-1.723-.124-3.451-.534-5.129v-405.139c.779-2.472.34-5.088.674-7.62.47-3.471 1.214-6.902 2.237-10.253 2.198-7.455 6.273-14.202 10.967-20.339 3.785-4.38 8.095-8.305 12.794-11.681 3.91-2.631 8.135-4.784 12.534-6.472 5.114-2.027 10.572-2.906 15.97-3.795zm146.652 63.461c-20.519 5.828-39.98 15.096-57.803 26.772-6.102 4.299-12.165 8.664-17.937 13.398-2.922 2.557-5.763 5.198-8.735 7.695-3.715 3.611-7.305 7.341-10.986 10.982-14.666 15.825-26.951 33.882-36.16 53.403-19.58 41.138-25.013 88.809-15.226 133.303 5.114 23.995 14.492 47.077 27.496 67.881 6.167 9.922 13.258 19.261 20.904 28.09 4.634 4.814 8.899 10.022 14.112 14.252 4.649 4.759 9.963 8.779 15.126 12.949 14.138 10.901 29.678 19.99 46.138 26.891 33.952 14.452 71.805 19.486 108.369 14.682 23.062-3.011 45.604-9.938 66.403-20.33 19.485-9.813 37.448-22.642 52.988-37.953 30.148-29.563 51.206-68.434 58.822-110.007 1.823-8.994 2.976-18.148 3.376-27.311 1.014-11.82.419-23.72-.749-35.506-3.406-32.904-14.792-64.924-32.869-92.619-6.158-9.109-12.679-18.013-20.2-26.052-12.554-13.708-26.747-25.983-42.472-35.931-5.244-3.221-10.457-6.581-16.075-9.113l-.954-.724c-7.83-3.916-15.83-7.521-24.085-10.457-41.248-15.117-87.326-16.645-129.483-4.295zm46.822 14.946c1.757-2.337 3.475-4.908 6.047-6.412 2.492-.254 5.014-.209 7.516-.09 1.308-.024 2.147 1.104 3.026 1.903 4.564 4.749 7.665 10.672 10.352 16.634 4.749 10.752 8.03 22.078 10.831 33.474 3.776 15.78 6.517 31.8 8.53 47.895-24.04.869-48.12.574-72.13-.879 2.911-22.347 6.906-44.659 13.787-66.163 3.097-9.153 6.587-18.317 12.041-26.362zm34.966-4.594c8.319 2.747 16.285 6.567 23.53 11.501 16.105 10.796 29.049 25.748 39.356 42.057 7.616 12.02 13.703 24.939 18.767 38.217-18.422 2.662-36.964 4.45-55.546 5.519-2.981-23.391-7.096-46.732-14.157-69.264-3.106-9.683-6.842-19.216-11.95-28.03zm-75.865 15.116c7.82-5.922 16.459-10.836 25.732-14.092-6.941 12.23-11.305 25.703-14.921 39.231-4.829 18.302-8.04 36.989-10.457 55.75-17.573-1.443-35.101-3.56-52.474-6.577 5.787-15.006 13.148-29.453 22.332-42.676 8.324-11.905 18.152-22.882 29.788-31.636zm-104.81 62.502c21.873-29.733 52.215-53.243 86.712-66.472-2.871 2.377-5.528 4.999-8.025 7.761-18.272 19.365-31.411 43.066-40.769 67.86-12.749-2.567-25.423-5.538-37.918-9.149zm227.776-66.337c35.576 13.783 66.822 38.497 88.29 70.043-12.859 3.271-25.868 5.982-38.967 8.109-10.487-29.178-26.501-56.883-49.323-78.152zm-237.124 80.36c.375-.515.699-1.414 1.483-.954 13.503 3.98 27.191 7.326 40.989 10.132-8.295 26.787-12.524 54.782-13.079 82.797-19.096-.01-38.197-.03-57.293.01 1.218-32.375 11.081-64.32 27.9-91.985zm291.162 11.975c14.307-2.467 28.509-5.533 42.561-9.169 15.491 27.106 24.375 57.948 25.474 89.159-18.607.005-37.214-.015-55.821.015-.529-27.046-4.494-54.063-12.214-80.005zm-234.163-.04c18.502 3.156 37.134 5.493 55.825 7.126-2.512 24.22-3.695 48.564-3.885 72.909-21.613-.005-43.231-.015-64.844.01.609-27.106 4.779-54.163 12.904-80.045zm160.794 8.369c19.651-1.118 39.241-3.156 58.727-5.932 7.64 25.133 11.585 51.341 12.145 77.593-22.372.015-44.744-.03-67.116.025-.19-23.935-1.374-47.865-3.756-71.686zm-90.302-.184c25.158 1.577 50.392 1.837 75.586.918 2.362 23.571 3.585 47.251 3.725 70.937-27.711-.015-55.416-.025-83.126.005.145-23.995 1.403-47.985 3.815-71.86zm-155.456 86.542c19.136.114 38.267-.09 57.398.099.61 28.375 5.089 56.71 13.658 83.781-14.282 2.816-28.409 6.377-42.392 10.442-17.423-28.29-27.59-61.084-28.664-94.322zm72.08.079c21.613-.105 43.231-.055 64.844-.025.285 24.729 1.553 49.464 4.29 74.043-18.602 1.603-37.159 3.83-55.551 7.071-8.534-26.162-12.849-53.608-13.583-81.089zm79.601-.06c27.695.025 55.391-.01 83.091.02-.31 24.08-1.543 48.16-4.155 72.105-24.894-.963-49.843-.679-74.707.909-2.696-24.244-4.02-48.639-4.229-73.034zm97.813.06c22.372-.139 44.749.025 67.121-.085-.659 26.657-4.799 53.259-12.769 78.717-19.396-2.756-38.907-4.759-58.467-5.877 2.541-24.17 3.84-48.46 4.115-72.755zm81.812-.01c18.617-.06 37.234-.089 55.851.015-1.144 31.576-10.163 62.837-26.113 90.123-14.042-3.626-28.23-6.692-42.532-9.089 8.01-26.247 12.205-53.623 12.794-81.049zm-173.603 87.606c23.686-1.468 47.441-1.693 71.156-.899-2.706 19.735-6.272 39.411-11.955 58.527-3.086 9.953-6.592 19.905-12.05 28.834-2.447 3.86-5.268 7.85-9.483 9.913-3.036 1.428-6.162-.674-8.294-2.737-4.889-4.974-8.12-11.291-10.912-17.613-6.272-14.507-10.122-29.918-13.333-45.348-2.048-10.168-3.776-20.395-5.129-30.677zm85.888-.16c18.477.979 36.904 2.817 55.231 5.374-9.169 23.88-22.312 46.636-40.639 64.669-11.681 11.455-25.758 20.799-41.533 25.473 4.499-6.956 7.79-14.617 10.671-22.362 8.4-23.601 12.919-48.39 16.27-73.154zm-152.854 7.676c17.318-2.842 34.741-5.004 52.23-6.467 2.926 21.423 6.831 42.791 13.258 63.465 3.276 10.348 7.211 20.57 12.864 29.873-14.737-4.949-27.865-13.932-38.872-24.799-17.618-17.398-30.322-39.206-39.48-62.072zm171.071 79.101c24.105-21.034 40.849-49.324 51.91-79.086 13.099 2.187 26.108 4.898 39.007 8.06-22.248 32.099-54.352 57.268-90.917 71.026zm-224.495-67.061c12.734-3.746 25.673-6.792 38.702-9.294 6.572 17.089 15.011 33.508 25.663 48.42 7.675 10.622 16.415 20.549 26.527 28.914-33.748-12.23-63.985-33.948-86.262-62.103-1.563-1.962-3.062-3.98-4.63-5.937z"/></g></svg>