<?xml version="1.0" encoding="UTF-8"?>
<!DOCTYPE svg PUBLIC "-//W3C//DTD SVG 1.1//EN" "http://www.w3.org/Graphics/SVG/1.1/DTD/svg11.dtd">
<!-- Creator: CorelDRAW 2018 (64-Bit) -->
<svg xmlns="http://www.w3.org/2000/svg" xml:space="preserve" width="100%" height="100%" version="1.1" shape-rendering="geometricPrecision" text-rendering="geometricPrecision" image-rendering="optimizeQuality" fill-rule="evenodd" clip-rule="evenodd"
viewBox="0 0 5022 5022"
 xmlns:xlink="http://www.w3.org/1999/xlink">
 <g id="Слой_x0020_1">
  <metadata id="CorelCorpID_0Corel-Layer"/>
  <g id="whats.pdf">
   <path fill="#3EC250" fill-rule="nonzero" d="M1250 0l2521 0c21,7 42,9 64,8 98,5 196,15 292,34 90,18 180,39 262,81 217,101 396,278 501,492 32,62 55,127 70,195 31,123 46,250 53,376 0,22 2,43 8,64l0 2520c-6,21 -8,43 -8,64 -7,133 -23,266 -57,395 -19,81 -54,158 -94,230 -45,78 -99,151 -161,215 -60,60 -125,116 -197,160 -86,53 -178,98 -276,121 -117,31 -237,47 -358,54 -33,4 -66,0 -98,11l-2516 0c-22,-7 -46,-9 -69,-9 -156,-8 -312,-29 -461,-76 -217,-76 -404,-228 -531,-418 -47,-79 -90,-162 -118,-250 -42,-139 -60,-284 -68,-429 0,-25 0,-50 -8,-73l0 -2520c6,-19 8,-39 8,-60 9,-166 31,-333 87,-490 21,-56 49,-109 80,-160 58,-101 138,-188 225,-264 94,-81 203,-143 318,-186 145,-46 297,-69 449,-77 28,-2 56,0 83,-10zm1148 697c-349,40 -686,186 -949,418 -31,24 -57,54 -85,82 -26,26 -54,51 -77,81 -69,78 -132,162 -184,253 -131,217 -213,463 -240,716 -4,44 -10,88 -9,133 1,65 -3,130 4,195 19,232 84,460 192,667 19,41 42,79 65,117 7,12 18,25 11,40 -78,235 -159,470 -237,706 -9,25 -17,50 -23,75 260,-88 521,-171 781,-259 11,-4 23,-6 33,2 161,99 338,172 522,214 125,28 254,45 382,43 47,-1 94,2 141,-5 366,-28 722,-177 999,-419 51,-41 93,-91 140,-135 59,-68 118,-136 165,-212 38,-56 74,-115 103,-176 114,-220 178,-464 191,-711 0,-85 4,-170 -6,-254 -21,-215 -80,-426 -178,-618 -56,-118 -129,-227 -212,-328 -29,-31 -54,-67 -85,-96 -39,-36 -73,-78 -115,-111 -66,-58 -137,-110 -211,-157 -51,-36 -108,-63 -163,-92 -196,-96 -409,-155 -627,-173 -80,-7 -160,-4 -240,-3 -30,-1 -59,5 -88,8zm-268 285c156,-51 321,-73 484,-72 160,4 321,30 472,84 103,34 200,85 294,138 69,43 134,90 195,143 43,39 83,80 124,121 94,104 175,220 239,344 30,64 60,127 80,194 53,148 77,306 84,463 2,130 -12,261 -41,388 -43,177 -114,348 -218,498 -32,50 -69,97 -108,142 -19,22 -34,47 -55,67 -28,26 -53,56 -84,78 -57,51 -118,98 -183,140 -24,14 -48,27 -71,42 -196,114 -418,181 -644,198 -60,3 -121,8 -181,1 -189,-8 -377,-54 -549,-132 -59,-29 -118,-56 -173,-92 -8,-5 -17,-12 -27,-8 -67,20 -132,44 -199,63 -29,8 -57,21 -85,33 -64,21 -126,47 -191,68 -70,25 -142,42 -210,72 9,-38 24,-75 37,-112 23,-71 50,-141 72,-212 13,-41 25,-82 40,-122 26,-76 49,-154 73,-231 3,-13 14,-28 3,-41 -49,-77 -89,-160 -123,-245 -41,-109 -74,-221 -89,-337 -9,-60 -13,-121 -17,-181 -3,-183 22,-368 83,-541 21,-68 52,-133 82,-197 57,-110 126,-213 208,-307 30,-39 68,-70 100,-106 23,-25 51,-44 75,-67 149,-122 320,-218 504,-276zm-290 658c-14,1 -24,14 -34,22 -27,29 -57,54 -81,85 -22,27 -39,57 -56,86 -48,85 -66,187 -52,284 9,77 36,152 69,222 20,40 38,81 63,118 76,121 161,236 257,342 36,36 72,72 108,108 91,94 194,174 304,245 42,30 90,52 136,77 52,25 105,51 160,70 140,50 295,74 440,30 103,-28 196,-92 261,-177 13,-18 27,-36 30,-59 8,-44 9,-88 15,-132 1,-11 3,-23 -5,-31 -19,-20 -44,-32 -68,-46 -114,-59 -229,-118 -348,-167 -13,-4 -26,-12 -40,-9 -26,13 -40,39 -59,59 -43,51 -82,105 -121,159 -12,16 -30,32 -51,27 -56,-12 -106,-40 -158,-62 -74,-41 -145,-88 -209,-143 -31,-26 -63,-51 -91,-80 -20,-20 -42,-40 -58,-64 -14,-20 -32,-36 -47,-56 -32,-43 -65,-85 -95,-130 -14,-24 -28,-49 -31,-76 -3,-20 15,-32 27,-45 27,-24 46,-56 68,-84 23,-29 42,-61 59,-93 7,-11 5,-25 1,-37 -18,-50 -38,-99 -58,-148 -35,-89 -72,-177 -115,-262 -6,-13 -16,-27 -32,-29 -28,-3 -56,0 -83,-3 -34,-4 -69,-3 -103,-3z"/>
   <path fill="white" fill-rule="nonzero" d="M2398 697c29,-3 58,-9 88,-8 80,-1 160,-4 240,3 217,17 431,76 627,173 55,29 112,56 163,92 74,47 145,99 211,157 42,33 76,74 115,111 32,29 56,64 85,96 82,101 156,210 212,328 98,192 157,404 178,618 10,84 6,169 6,254 -13,247 -77,491 -191,711 -29,62 -65,120 -103,176 -48,76 -107,144 -165,212 -47,44 -89,94 -140,135 -277,242 -633,390 -999,419 -47,6 -94,3 -141,5 -129,2 -257,-15 -382,-43 -184,-42 -361,-115 -522,-214 -10,-7 -22,-6 -33,-2 -260,88 -522,171 -781,259 6,-26 14,-51 23,-75 78,-235 159,-470 237,-706 7,-14 -4,-28 -11,-40 -24,-38 -47,-76 -65,-117 -108,-206 -173,-435 -192,-667 -8,-65 -3,-130 -4,-195 -1,-44 5,-88 9,-133 27,-252 109,-498 240,-716 52,-91 115,-174 184,-253 22,-30 50,-54 77,-81 28,-28 54,-58 85,-82 263,-233 600,-379 949,-418zm-268 285c-184,58 -355,154 -504,276 -25,23 -52,42 -75,67 -33,36 -70,67 -100,106 -81,94 -151,197 -208,307 -30,65 -61,129 -82,197 -61,173 -86,358 -83,541 4,61 8,121 17,181 16,115 48,228 89,337 34,85 74,167 123,245 11,13 0,27 -3,41 -24,77 -47,155 -73,231 -15,40 -27,82 -40,122 -23,71 -49,141 -72,212 -12,37 -28,74 -37,112 68,-30 140,-48 210,-72 64,-21 127,-47 191,-68 28,-12 55,-25 85,-33 67,-19 133,-43 199,-63 10,-5 19,3 27,8 55,35 115,63 173,92 172,78 360,124 549,132 60,6 121,2 181,-1 226,-16 448,-83 644,-198 23,-15 47,-28 71,-42 65,-41 126,-89 183,-140 31,-22 56,-52 84,-78 21,-20 36,-45 55,-67 39,-45 76,-92 108,-142 103,-150 174,-321 218,-498 29,-127 43,-258 41,-388 -6,-157 -30,-314 -84,-463 -21,-67 -51,-131 -80,-194 -64,-125 -145,-240 -239,-344 -41,-41 -81,-83 -124,-121 -61,-53 -127,-100 -195,-143 -94,-54 -191,-104 -294,-138 -151,-54 -312,-80 -472,-84 -164,-1 -328,21 -484,72zm-290 658c34,0 69,-1 103,3 28,3 56,0 83,3 16,2 25,16 32,29 43,85 80,173 115,262 20,49 41,98 58,148 5,12 6,25 -1,37 -17,33 -36,64 -59,93 -23,28 -41,59 -68,84 -12,13 -30,25 -27,45 3,28 17,53 31,76 30,44 63,87 95,130 15,19 34,35 47,56 16,24 38,44 58,64 28,29 60,54 91,80 64,55 135,102 209,143 52,22 103,50 158,62 21,5 40,-11 51,-27 40,-53 78,-108 121,-159 18,-21 33,-47 59,-59 14,-3 27,5 40,9 119,49 233,108 348,167 23,14 49,26 68,46 8,8 6,21 5,31 -7,44 -8,88 -15,132 -4,22 -17,41 -30,59 -65,85 -157,148 -261,177 -145,43 -300,20 -440,-30 -55,-18 -108,-44 -160,-70 -46,-25 -93,-47 -136,-77 -110,-70 -214,-151 -304,-245 -36,-36 -72,-72 -108,-108 -96,-106 -181,-221 -257,-342 -25,-37 -44,-78 -63,-118 -33,-70 -59,-145 -69,-222 -15,-97 4,-199 52,-284 17,-30 35,-60 56,-86 24,-31 54,-57 81,-85 10,-9 20,-21 34,-22z"/>
  </g>
 </g>
</svg>
